<svg width="414" height="73" viewBox="0 0 414 73" fill="none" xmlns="http://www.w3.org/2000/svg">
<rect x="0.5" y="0.5" width="413" height="72" rx="9.5" fill="#0D1117"/>
<path d="M13.052 24.112C12.408 24.0373 11.848 23.8553 11.372 23.566C10.896 23.2767 10.5367 22.922 10.294 22.502L11.33 21.564C11.8247 22.3013 12.4873 22.7307 13.318 22.852L13.864 19.576L13.612 19.506C12.1093 19.1233 11.358 18.3113 11.358 17.07C11.358 16.6313 11.4373 16.2347 11.596 15.88C11.7547 15.5253 11.9787 15.2173 12.268 14.956C12.5667 14.6947 12.9213 14.4893 13.332 14.34C13.7427 14.1907 14.2047 14.102 14.718 14.074L14.956 12.646H16.104L15.866 14.13C16.4353 14.2233 16.916 14.4007 17.308 14.662C17.7093 14.9233 18.0173 15.2313 18.232 15.586L17.196 16.468C17 16.1787 16.7667 15.9453 16.496 15.768C16.2347 15.5907 15.9267 15.4693 15.572 15.404L15.068 18.456L15.362 18.526C16.118 18.722 16.6873 19.016 17.07 19.408C17.4527 19.8 17.644 20.3133 17.644 20.948C17.644 21.396 17.5647 21.8113 17.406 22.194C17.2473 22.5673 17.0187 22.894 16.72 23.174C16.4213 23.454 16.0573 23.678 15.628 23.846C15.208 24.014 14.7273 24.1167 14.186 24.154L13.948 25.582H12.8L13.052 24.112ZM12.87 16.93C12.87 17.2847 12.9727 17.5553 13.178 17.742C13.3833 17.9193 13.6913 18.064 14.102 18.176L14.564 15.376C14.0227 15.432 13.6027 15.6 13.304 15.88C13.0147 16.1507 12.87 16.5007 12.87 16.93ZM16.118 21.088C16.118 20.7613 16.0153 20.5 15.81 20.304C15.614 20.108 15.2873 19.9493 14.83 19.828L14.34 22.852C14.9 22.7773 15.334 22.586 15.642 22.278C15.9593 21.97 16.118 21.5733 16.118 21.088Z" fill="#00A3FF"/>
<path d="M21.31 24L22.304 17.994H20.442L20.652 16.776H24.012L23.662 18.82H23.746C24.0167 18.1947 24.362 17.7 24.782 17.336C25.202 16.9627 25.762 16.776 26.462 16.776H27.302L27.05 18.274H25.79C25.3887 18.274 25.0573 18.33 24.796 18.442C24.544 18.5447 24.32 18.7173 24.124 18.96C24.0307 19.072 23.9 19.254 23.732 19.506C23.5733 19.758 23.466 20.052 23.41 20.388L22.808 24H21.31ZM32.6305 22.292H32.5605C32.2899 22.8707 31.9725 23.328 31.6085 23.664C31.2445 24 30.7685 24.168 30.1805 24.168C29.5365 24.168 29.0465 23.9767 28.7105 23.594C28.3839 23.202 28.2205 22.698 28.2205 22.082C28.2205 21.914 28.2252 21.7413 28.2345 21.564C28.2532 21.3773 28.2859 21.1627 28.3325 20.92L29.0185 16.776H30.5165L29.8165 20.976C29.7979 21.1067 29.7792 21.2467 29.7605 21.396C29.7419 21.536 29.7325 21.6667 29.7325 21.788C29.7325 22.1147 29.8119 22.39 29.9705 22.614C30.1385 22.838 30.4092 22.95 30.7825 22.95C31.0625 22.95 31.3099 22.8847 31.5245 22.754C31.7485 22.6233 31.9539 22.446 32.1405 22.222C32.2339 22.11 32.3645 21.914 32.5325 21.634C32.7099 21.354 32.8312 21.0227 32.8965 20.64L33.5405 16.776H35.0385L33.8345 24H32.3365L32.6305 22.292Z" fill="#FF7A00"/>
<path d="M45.4305 24V14.228H49.0845C50.0179 14.228 50.7272 14.4893 51.2125 15.012C51.7072 15.5347 51.9545 16.2533 51.9545 17.168C51.9545 18.0827 51.7072 18.8013 51.2125 19.324C50.7272 19.8467 50.0179 20.108 49.0845 20.108H46.9985V24H45.4305ZM46.9985 18.806H48.8465C49.8172 18.806 50.3025 18.358 50.3025 17.462V16.86C50.3025 15.9733 49.8172 15.53 48.8465 15.53H46.9985V18.806ZM58.8231 16.776H60.3631L56.8631 25.4C56.6764 25.8667 56.4291 26.2167 56.1211 26.45C55.8224 26.6833 55.3884 26.8 54.8191 26.8H53.6011V25.568H55.3091L55.9671 23.902L53.0551 16.776H54.6511L55.7991 19.8L56.6951 22.278H56.7791L57.6751 19.8L58.8231 16.776ZM65.2296 24.168C64.6883 24.168 64.2029 24.0793 63.7736 23.902C63.3536 23.7247 62.9943 23.4727 62.6956 23.146C62.4063 22.8193 62.1823 22.4227 62.0236 21.956C61.8743 21.4893 61.7996 20.9667 61.7996 20.388C61.7996 19.8093 61.8743 19.2867 62.0236 18.82C62.1823 18.3533 62.4063 17.9567 62.6956 17.63C62.9943 17.3033 63.3536 17.0513 63.7736 16.874C64.2029 16.6967 64.6836 16.608 65.2156 16.608C65.9623 16.608 66.5596 16.7667 67.0076 17.084C67.4649 17.4013 67.8056 17.812 68.0296 18.316L66.8396 18.96C66.7089 18.624 66.5083 18.358 66.2376 18.162C65.9763 17.966 65.6356 17.868 65.2156 17.868C64.6369 17.868 64.1889 18.0453 63.8716 18.4C63.5543 18.7453 63.3956 19.2073 63.3956 19.786V20.99C63.3956 21.5593 63.5543 22.0213 63.8716 22.376C64.1889 22.7307 64.6463 22.908 65.2436 22.908C65.6916 22.908 66.0556 22.8053 66.3356 22.6C66.6249 22.3947 66.8536 22.1147 67.0216 21.76L68.1416 22.446C67.9083 22.95 67.5536 23.3653 67.0776 23.692C66.6016 24.0093 65.9856 24.168 65.2296 24.168ZM73.4841 24.168C72.9428 24.168 72.4575 24.0793 72.0281 23.902C71.6081 23.7247 71.2488 23.4727 70.9501 23.146C70.6608 22.8193 70.4368 22.4227 70.2781 21.956C70.1288 21.4893 70.0541 20.9667 70.0541 20.388C70.0541 19.8093 70.1288 19.2867 70.2781 18.82C70.4368 18.3533 70.6608 17.9567 70.9501 17.63C71.2488 17.3033 71.6081 17.0513 72.0281 16.874C72.4575 16.6967 72.9381 16.608 73.4701 16.608C74.2168 16.608 74.8141 16.7667 75.2621 17.084C75.7195 17.4013 76.0601 17.812 76.2841 18.316L75.0941 18.96C74.9635 18.624 74.7628 18.358 74.4921 18.162C74.2308 17.966 73.8901 17.868 73.4701 17.868C72.8915 17.868 72.4435 18.0453 72.1261 18.4C71.8088 18.7453 71.6501 19.2073 71.6501 19.786V20.99C71.6501 21.5593 71.8088 22.0213 72.1261 22.376C72.4435 22.7307 72.9008 22.908 73.4981 22.908C73.9461 22.908 74.3101 22.8053 74.5901 22.6C74.8795 22.3947 75.1081 22.1147 75.2761 21.76L76.3961 22.446C76.1628 22.95 75.8081 23.3653 75.3321 23.692C74.8561 24.0093 74.2401 24.168 73.4841 24.168ZM78.5607 16.776H80.0867V19.688H81.3887L83.1247 16.776H84.7627L83.1527 19.408C82.994 19.6787 82.84 19.87 82.6907 19.982C82.5413 20.094 82.3687 20.1733 82.1727 20.22V20.29C82.3967 20.3367 82.5833 20.4207 82.7327 20.542C82.882 20.654 83.036 20.85 83.1947 21.13L84.1047 22.768H84.8887V24H83.9927C83.6847 24 83.4187 23.93 83.1947 23.79C82.98 23.6407 82.7793 23.4027 82.5927 23.076L81.3887 20.92H80.0867V24H78.5607V16.776ZM86.6892 16.776H88.2012V19.884L88.0612 21.844H88.1312L91.3232 16.776H92.7652V24H91.2532V20.892L91.3932 18.932H91.3232L88.1312 24H86.6892V16.776ZM94.9437 16.776H96.4557V19.884L96.3157 21.844H96.3857L99.5777 16.776H101.02V24H99.5077V20.892L99.6477 18.932H99.5777L96.3857 24H94.9437V16.776ZM97.9817 15.824C97.4404 15.824 97.0017 15.7073 96.6657 15.474C96.3297 15.2313 96.0544 14.872 95.8397 14.396L95.4897 13.612L96.7637 13.164L97.2677 14.648C97.3517 14.6853 97.4637 14.7133 97.6037 14.732C97.7437 14.7413 97.8697 14.746 97.9817 14.746C98.0937 14.746 98.2197 14.7413 98.3597 14.732C98.4997 14.7133 98.6117 14.6853 98.6957 14.648L99.1997 13.164L100.474 13.612L100.124 14.396C99.9091 14.872 99.6337 15.2313 99.2977 15.474C98.9617 15.7073 98.5231 15.824 97.9817 15.824ZM113.721 18.008H111.187V16.776H117.795V18.008H115.247V24H113.721V18.008ZM122.899 24.168C122.349 24.168 121.854 24.0793 121.415 23.902C120.977 23.7247 120.608 23.4727 120.309 23.146C120.011 22.8193 119.782 22.4273 119.623 21.97C119.465 21.5033 119.385 20.9807 119.385 20.402C119.385 19.8233 119.465 19.3007 119.623 18.834C119.791 18.3673 120.02 17.9707 120.309 17.644C120.608 17.308 120.967 17.0513 121.387 16.874C121.807 16.6967 122.274 16.608 122.787 16.608C123.291 16.608 123.749 16.6967 124.159 16.874C124.57 17.042 124.92 17.2847 125.209 17.602C125.499 17.9193 125.718 18.2973 125.867 18.736C126.026 19.1747 126.105 19.66 126.105 20.192V20.766H120.925V21.004C120.925 21.5733 121.103 22.04 121.457 22.404C121.812 22.7587 122.302 22.936 122.927 22.936C123.394 22.936 123.791 22.838 124.117 22.642C124.453 22.4367 124.724 22.166 124.929 21.83L125.881 22.67C125.639 23.09 125.265 23.4447 124.761 23.734C124.267 24.0233 123.646 24.168 122.899 24.168ZM122.787 17.77C122.517 17.77 122.265 17.8167 122.031 17.91C121.807 18.0033 121.611 18.1387 121.443 18.316C121.285 18.484 121.159 18.6847 121.065 18.918C120.972 19.1513 120.925 19.408 120.925 19.688V19.786H124.551V19.646C124.551 19.0767 124.388 18.624 124.061 18.288C123.744 17.9427 123.319 17.77 122.787 17.77ZM128.088 16.776H129.614V19.688H130.916L132.652 16.776H134.29L132.68 19.408C132.521 19.6787 132.367 19.87 132.218 19.982C132.069 20.094 131.896 20.1733 131.7 20.22V20.29C131.924 20.3367 132.111 20.4207 132.26 20.542C132.409 20.654 132.563 20.85 132.722 21.13L133.632 22.768H134.416V24H133.52C133.212 24 132.946 23.93 132.722 23.79C132.507 23.6407 132.307 23.4027 132.12 23.076L130.916 20.92H129.614V24H128.088V16.776ZM139.52 24.168C138.979 24.168 138.494 24.0793 138.064 23.902C137.644 23.7247 137.285 23.4727 136.986 23.146C136.697 22.8193 136.473 22.4227 136.314 21.956C136.165 21.4893 136.09 20.9667 136.09 20.388C136.09 19.8093 136.165 19.2867 136.314 18.82C136.473 18.3533 136.697 17.9567 136.986 17.63C137.285 17.3033 137.644 17.0513 138.064 16.874C138.494 16.6967 138.974 16.608 139.506 16.608C140.253 16.608 140.85 16.7667 141.298 17.084C141.756 17.4013 142.096 17.812 142.32 18.316L141.13 18.96C141 18.624 140.799 18.358 140.528 18.162C140.267 17.966 139.926 17.868 139.506 17.868C138.928 17.868 138.48 18.0453 138.162 18.4C137.845 18.7453 137.686 19.2073 137.686 19.786V20.99C137.686 21.5593 137.845 22.0213 138.162 22.376C138.48 22.7307 138.937 22.908 139.534 22.908C139.982 22.908 140.346 22.8053 140.626 22.6C140.916 22.3947 141.144 22.1147 141.312 21.76L142.432 22.446C142.199 22.95 141.844 23.3653 141.368 23.692C140.892 24.0093 140.276 24.168 139.52 24.168ZM146.739 18.008H144.205V16.776H150.813V18.008H148.265V24H146.739V18.008Z" fill="white" fill-opacity="0.6"/>
<rect x="172" y="10" width="87" height="23" rx="4" fill="#161B22"/>
<path d="M185.719 19.5653C185.673 19.1619 185.486 18.8494 185.156 18.6278C184.827 18.4034 184.412 18.2912 183.912 18.2912C183.554 18.2912 183.244 18.348 182.983 18.4616C182.722 18.5724 182.518 18.7259 182.374 18.9219C182.232 19.1151 182.161 19.3352 182.161 19.5824C182.161 19.7898 182.209 19.9687 182.305 20.1193C182.405 20.2699 182.534 20.3963 182.693 20.4986C182.855 20.598 183.028 20.6818 183.213 20.75C183.398 20.8153 183.575 20.8693 183.746 20.9119L184.598 21.1335C184.876 21.2017 185.162 21.294 185.455 21.4105C185.747 21.527 186.018 21.6804 186.268 21.8707C186.518 22.0611 186.72 22.2969 186.874 22.5781C187.03 22.8594 187.108 23.196 187.108 23.5881C187.108 24.0824 186.98 24.5213 186.724 24.9048C186.472 25.2884 186.104 25.5909 185.621 25.8125C185.141 26.0341 184.56 26.1449 183.878 26.1449C183.224 26.1449 182.659 26.0412 182.182 25.8338C181.705 25.6264 181.331 25.3324 181.061 24.9517C180.791 24.5682 180.642 24.1136 180.614 23.5881H181.935C181.96 23.9034 182.063 24.1662 182.241 24.3764C182.423 24.5838 182.655 24.7386 182.936 24.8409C183.22 24.9403 183.531 24.9901 183.869 24.9901C184.241 24.9901 184.572 24.9318 184.862 24.8153C185.155 24.696 185.385 24.5312 185.553 24.321C185.72 24.108 185.804 23.8594 185.804 23.5753C185.804 23.3168 185.73 23.1051 185.582 22.9403C185.438 22.7756 185.24 22.6392 184.99 22.5312C184.743 22.4233 184.463 22.3281 184.151 22.2457L183.119 21.9645C182.42 21.7741 181.866 21.4943 181.457 21.125C181.051 20.7557 180.848 20.267 180.848 19.6591C180.848 19.1562 180.984 18.7173 181.257 18.3423C181.53 17.9673 181.899 17.6761 182.365 17.4688C182.831 17.2585 183.357 17.1534 183.942 17.1534C184.533 17.1534 185.054 17.2571 185.506 17.4645C185.96 17.6719 186.318 17.9574 186.58 18.321C186.841 18.6818 186.977 19.0966 186.989 19.5653H185.719ZM188.561 26V17.2727H194.033V18.4062H189.878V21.0653H193.748V22.1946H189.878V24.8665H194.084V26H188.561ZM195.672 26V17.2727H198.783C199.462 17.2727 200.024 17.3963 200.47 17.6435C200.916 17.8906 201.25 18.2287 201.472 18.6577C201.693 19.0838 201.804 19.5639 201.804 20.098C201.804 20.6349 201.692 21.1179 201.467 21.5469C201.246 21.973 200.911 22.3111 200.462 22.5611C200.016 22.8082 199.455 22.9318 198.778 22.9318H196.639V21.8153H198.659C199.088 21.8153 199.436 21.7415 199.703 21.5938C199.97 21.4432 200.166 21.2386 200.291 20.9801C200.416 20.7216 200.479 20.4276 200.479 20.098C200.479 19.7685 200.416 19.4759 200.291 19.2202C200.166 18.9645 199.969 18.7642 199.699 18.6193C199.432 18.4744 199.08 18.402 198.642 18.402H196.989V26H195.672ZM210.809 21.6364C210.809 22.5682 210.638 23.3693 210.297 24.0398C209.956 24.7074 209.489 25.2216 208.895 25.5824C208.304 25.9403 207.633 26.1193 206.88 26.1193C206.124 26.1193 205.449 25.9403 204.856 25.5824C204.265 25.2216 203.799 24.706 203.458 24.0355C203.117 23.3651 202.946 22.5653 202.946 21.6364C202.946 20.7045 203.117 19.9048 203.458 19.2372C203.799 18.5668 204.265 18.0526 204.856 17.6946C205.449 17.3338 206.124 17.1534 206.88 17.1534C207.633 17.1534 208.304 17.3338 208.895 17.6946C209.489 18.0526 209.956 18.5668 210.297 19.2372C210.638 19.9048 210.809 20.7045 210.809 21.6364ZM209.505 21.6364C209.505 20.9261 209.39 20.3281 209.16 19.8423C208.932 19.3537 208.62 18.9844 208.222 18.7344C207.827 18.4815 207.38 18.3551 206.88 18.3551C206.377 18.3551 205.928 18.4815 205.533 18.7344C205.138 18.9844 204.826 19.3537 204.596 19.8423C204.368 20.3281 204.255 20.9261 204.255 21.6364C204.255 22.3466 204.368 22.946 204.596 23.4347C204.826 23.9205 205.138 24.2898 205.533 24.5426C205.928 24.7926 206.377 24.9176 206.88 24.9176C207.38 24.9176 207.827 24.7926 208.222 24.5426C208.62 24.2898 208.932 23.9205 209.16 23.4347C209.39 22.946 209.505 22.3466 209.505 21.6364ZM212.33 26V17.2727H215.441C216.117 17.2727 216.678 17.3892 217.124 17.6222C217.573 17.8551 217.908 18.1776 218.13 18.5895C218.352 18.9986 218.462 19.4716 218.462 20.0085C218.462 20.5426 218.35 21.0128 218.126 21.419C217.904 21.8224 217.569 22.1364 217.12 22.3608C216.674 22.5852 216.113 22.6974 215.437 22.6974H213.08V21.5639H215.318C215.744 21.5639 216.09 21.5028 216.357 21.3807C216.627 21.2585 216.825 21.081 216.95 20.848C217.075 20.6151 217.137 20.3352 217.137 20.0085C217.137 19.679 217.073 19.3935 216.945 19.152C216.82 18.9105 216.623 18.7259 216.353 18.598C216.086 18.4673 215.735 18.402 215.301 18.402H213.647V26H212.33ZM216.639 22.0625L218.795 26H217.295L215.181 22.0625H216.639ZM220.682 26H219.284L222.425 17.2727H223.946L227.087 26H225.689L223.222 18.858H223.154L220.682 26ZM220.916 22.5824H225.45V23.6903H220.916V22.5824ZM226.765 18.4062V17.2727H233.52V18.4062H230.797V26H229.484V18.4062H226.765ZM242.098 21.6364C242.098 22.5682 241.928 23.3693 241.587 24.0398C241.246 24.7074 240.779 25.2216 240.185 25.5824C239.594 25.9403 238.922 26.1193 238.169 26.1193C237.414 26.1193 236.739 25.9403 236.145 25.5824C235.554 25.2216 235.088 24.706 234.747 24.0355C234.406 23.3651 234.236 22.5653 234.236 21.6364C234.236 20.7045 234.406 19.9048 234.747 19.2372C235.088 18.5668 235.554 18.0526 236.145 17.6946C236.739 17.3338 237.414 17.1534 238.169 17.1534C238.922 17.1534 239.594 17.3338 240.185 17.6946C240.779 18.0526 241.246 18.5668 241.587 19.2372C241.928 19.9048 242.098 20.7045 242.098 21.6364ZM240.794 21.6364C240.794 20.9261 240.679 20.3281 240.449 19.8423C240.222 19.3537 239.909 18.9844 239.512 18.7344C239.117 18.4815 238.669 18.3551 238.169 18.3551C237.666 18.3551 237.218 18.4815 236.823 18.7344C236.428 18.9844 236.115 19.3537 235.885 19.8423C235.658 20.3281 235.544 20.9261 235.544 21.6364C235.544 22.3466 235.658 22.946 235.885 23.4347C236.115 23.9205 236.428 24.2898 236.823 24.5426C237.218 24.7926 237.666 24.9176 238.169 24.9176C238.669 24.9176 239.117 24.7926 239.512 24.5426C239.909 24.2898 240.222 23.9205 240.449 23.4347C240.679 22.946 240.794 22.3466 240.794 21.6364ZM243.62 26V17.2727H246.731C247.407 17.2727 247.968 17.3892 248.414 17.6222C248.863 17.8551 249.198 18.1776 249.42 18.5895C249.641 18.9986 249.752 19.4716 249.752 20.0085C249.752 20.5426 249.64 21.0128 249.415 21.419C249.194 21.8224 248.859 22.1364 248.41 22.3608C247.964 22.5852 247.403 22.6974 246.726 22.6974H244.37V21.5639H246.607C247.033 21.5639 247.38 21.5028 247.647 21.3807C247.917 21.2585 248.114 21.081 248.239 20.848C248.364 20.6151 248.427 20.3352 248.427 20.0085C248.427 19.679 248.363 19.3935 248.235 19.152C248.11 18.9105 247.913 18.7259 247.643 18.598C247.376 18.4673 247.025 18.402 246.59 18.402H244.937V26H243.62ZM247.928 22.0625L250.084 26H248.584L246.471 22.0625H247.928Z" fill="#00A3FF"/>
<rect x="172.5" y="10.5" width="86" height="22" rx="3.5" stroke="white" stroke-opacity="0.05"/>
<rect x="269" y="10" width="50" height="23" rx="4" fill="#161B22"/>
<path d="M277.959 26V17.2727H279.276V24.8665H283.23V26H277.959ZM285.795 26H284.397L287.538 17.2727H289.059L292.2 26H290.802L288.335 18.858H288.266L285.795 26ZM286.029 22.5824H290.563V23.6903H286.029V22.5824ZM300.384 17.2727V26H299.174L294.738 19.5994H294.657V26H293.34V17.2727H294.559L298.999 23.6818H299.08V17.2727H300.384ZM308.091 20.0298C308.009 19.7713 307.898 19.5398 307.759 19.3352C307.622 19.1278 307.459 18.9517 307.269 18.8068C307.078 18.6591 306.861 18.5469 306.617 18.4702C306.375 18.3935 306.109 18.3551 305.82 18.3551C305.328 18.3551 304.885 18.4815 304.49 18.7344C304.095 18.9872 303.783 19.358 303.553 19.8466C303.325 20.3324 303.212 20.9276 303.212 21.6321C303.212 22.3395 303.327 22.9375 303.557 23.4261C303.787 23.9148 304.102 24.2855 304.503 24.5384C304.903 24.7912 305.359 24.9176 305.871 24.9176C306.345 24.9176 306.759 24.821 307.111 24.6278C307.466 24.4347 307.74 24.1619 307.933 23.8097C308.129 23.4545 308.227 23.0369 308.227 22.5568L308.568 22.6207H306.071V21.5341H309.502V22.527C309.502 23.2599 309.345 23.8963 309.033 24.4361C308.723 24.973 308.294 25.3878 307.746 25.6804C307.2 25.973 306.575 26.1193 305.871 26.1193C305.081 26.1193 304.388 25.9375 303.791 25.5739C303.198 25.2102 302.734 24.6946 302.402 24.027C302.07 23.3565 301.903 22.5611 301.903 21.6406C301.903 20.9446 302 20.3196 302.193 19.7656C302.386 19.2116 302.658 18.7415 303.007 18.3551C303.359 17.9659 303.773 17.669 304.247 17.4645C304.725 17.2571 305.246 17.1534 305.811 17.1534C306.283 17.1534 306.722 17.223 307.128 17.3622C307.537 17.5014 307.901 17.6989 308.219 17.9545C308.54 18.2102 308.805 18.5142 309.016 18.8665C309.226 19.2159 309.368 19.6037 309.442 20.0298H308.091Z" fill="#FF7A00"/>
<rect x="269.5" y="10.5" width="49" height="22" rx="3.5" stroke="white" stroke-opacity="0.05"/>
<rect x="329" y="10" width="75" height="23" rx="4" fill="#161B22"/>
<path d="M345.207 20.1108H343.878C343.827 19.8267 343.732 19.5767 343.592 19.3608C343.453 19.1449 343.283 18.9616 343.081 18.8111C342.879 18.6605 342.653 18.5469 342.403 18.4702C342.156 18.3935 341.893 18.3551 341.615 18.3551C341.112 18.3551 340.662 18.4815 340.264 18.7344C339.869 18.9872 339.557 19.358 339.327 19.8466C339.099 20.3352 338.986 20.9318 338.986 21.6364C338.986 22.3466 339.099 22.946 339.327 23.4347C339.557 23.9233 339.871 24.2926 340.268 24.5426C340.666 24.7926 341.114 24.9176 341.611 24.9176C341.886 24.9176 342.148 24.8807 342.395 24.8068C342.645 24.7301 342.871 24.6179 343.072 24.4702C343.274 24.3224 343.445 24.142 343.584 23.929C343.726 23.7131 343.824 23.4659 343.878 23.1875L345.207 23.1918C345.136 23.6207 344.999 24.0156 344.794 24.3764C344.592 24.7344 344.332 25.044 344.014 25.3054C343.699 25.5639 343.338 25.7642 342.932 25.9062C342.526 26.0483 342.082 26.1193 341.602 26.1193C340.847 26.1193 340.173 25.9403 339.582 25.5824C338.991 25.2216 338.526 24.706 338.185 24.0355C337.847 23.3651 337.678 22.5653 337.678 21.6364C337.678 20.7045 337.848 19.9048 338.189 19.2372C338.53 18.5668 338.996 18.0526 339.587 17.6946C340.178 17.3338 340.849 17.1534 341.602 17.1534C342.065 17.1534 342.497 17.2202 342.898 17.3537C343.301 17.4844 343.663 17.6776 343.984 17.9332C344.305 18.1861 344.571 18.4957 344.781 18.8622C344.991 19.2259 345.134 19.642 345.207 20.1108ZM354.244 21.6364C354.244 22.5682 354.074 23.3693 353.733 24.0398C353.392 24.7074 352.924 25.2216 352.331 25.5824C351.74 25.9403 351.068 26.1193 350.315 26.1193C349.559 26.1193 348.885 25.9403 348.291 25.5824C347.7 25.2216 347.234 24.706 346.893 24.0355C346.552 23.3651 346.382 22.5653 346.382 21.6364C346.382 20.7045 346.552 19.9048 346.893 19.2372C347.234 18.5668 347.7 18.0526 348.291 17.6946C348.885 17.3338 349.559 17.1534 350.315 17.1534C351.068 17.1534 351.74 17.3338 352.331 17.6946C352.924 18.0526 353.392 18.5668 353.733 19.2372C354.074 19.9048 354.244 20.7045 354.244 21.6364ZM352.94 21.6364C352.94 20.9261 352.825 20.3281 352.595 19.8423C352.368 19.3537 352.055 18.9844 351.657 18.7344C351.262 18.4815 350.815 18.3551 350.315 18.3551C349.812 18.3551 349.363 18.4815 348.968 18.7344C348.574 18.9844 348.261 19.3537 348.031 19.8423C347.804 20.3281 347.69 20.9261 347.69 21.6364C347.69 22.3466 347.804 22.946 348.031 23.4347C348.261 23.9205 348.574 24.2898 348.968 24.5426C349.363 24.7926 349.812 24.9176 350.315 24.9176C350.815 24.9176 351.262 24.7926 351.657 24.5426C352.055 24.2898 352.368 23.9205 352.595 23.4347C352.825 22.946 352.94 22.3466 352.94 21.6364ZM362.81 17.2727V26H361.599L357.163 19.5994H357.082V26H355.766V17.2727H356.984L361.425 23.6818H361.506V17.2727H362.81ZM364.18 18.4062V17.2727H370.934V18.4062H368.211V26H366.899V18.4062H364.18ZM372.307 26V17.2727H377.779V18.4062H373.624V21.0653H377.493V22.1946H373.624V24.8665H377.83V26H372.307ZM386.461 17.2727V26H385.251L380.815 19.5994H380.734V26H379.417V17.2727H380.636L385.076 23.6818H385.157V17.2727H386.461ZM387.832 18.4062V17.2727H394.586V18.4062H391.863V26H390.551V18.4062H387.832Z" fill="white" fill-opacity="0.6"/>
<rect x="329.5" y="10.5" width="74" height="22" rx="3.5" stroke="white" stroke-opacity="0.05"/>
<path d="M212.833 33C212.833 34.4728 214.027 35.6667 215.5 35.6667C216.973 35.6667 218.167 34.4728 218.167 33C218.167 31.5272 216.973 30.3333 215.5 30.3333C214.027 30.3333 212.833 31.5272 212.833 33ZM14 32V33.0417H15V32H14ZM14 35.125V37.2083H15V35.125H14ZM14 39.2917V41.375H15V39.2917H14ZM14 43.4583V45.5417H15V43.4583H14ZM14 47.625V49.7083H15V47.625H14ZM14 51.7917V53.875H15V51.7917H14ZM14 55.9583V57H15V55.9583H14ZM14 57C14 57.4335 14.0425 57.8575 14.1237 58.268L15.1047 58.0739C15.0361 57.727 15 57.368 15 57H14ZM15.0951 60.6119C15.5695 61.3205 16.1795 61.9305 16.8881 62.4049L17.4445 61.5739C16.8445 61.1722 16.3278 60.6555 15.9261 60.0555L15.0951 60.6119ZM19.232 63.3763C19.6425 63.4575 20.0665 63.5 20.5 63.5V62.5C20.132 62.5 19.773 62.4639 19.4261 62.3953L19.232 63.3763ZM20.5 63.5H21.5053V62.5H20.5V63.5ZM23.516 63.5H25.5266V62.5H23.516V63.5ZM27.5372 63.5H29.5479V62.5H27.5372V63.5ZM31.5585 63.5H33.5691V62.5H31.5585V63.5ZM35.5798 63.5H37.5904V62.5H35.5798V63.5ZM39.6011 63.5H41.6117V62.5H39.6011V63.5ZM43.6223 63.5H45.633V62.5H43.6223V63.5ZM47.6436 63.5H49.6543V62.5H47.6436V63.5ZM51.6649 63.5H53.6755V62.5H51.6649V63.5ZM55.6862 63.5H57.6968V62.5H55.6862V63.5ZM59.7075 63.5H61.7181V62.5H59.7075V63.5ZM63.7287 63.5H65.7394V62.5H63.7287V63.5ZM67.75 63.5H69.7607V62.5H67.75V63.5ZM71.7713 63.5H73.7819V62.5H71.7713V63.5ZM75.7926 63.5H77.8032V62.5H75.7926V63.5ZM79.8138 63.5H81.8245V62.5H79.8138V63.5ZM83.8351 63.5H85.8458V62.5H83.8351V63.5ZM87.8564 63.5H89.867V62.5H87.8564V63.5ZM91.8777 63.5H93.8883V62.5H91.8777V63.5ZM95.8989 63.5H97.9096V62.5H95.8989V63.5ZM99.9202 63.5H101.931V62.5H99.9202V63.5ZM103.941 63.5H105.952V62.5H103.941V63.5ZM107.963 63.5H109.973V62.5H107.963V63.5ZM111.984 63.5H113.995V62.5H111.984V63.5ZM116.005 63.5H118.016V62.5H116.005V63.5ZM120.027 63.5H122.037V62.5H120.027V63.5ZM124.048 63.5H126.058V62.5H124.048V63.5ZM128.069 63.5H130.08V62.5H128.069V63.5ZM132.09 63.5H134.101V62.5H132.09V63.5ZM136.112 63.5H138.122V62.5H136.112V63.5ZM140.133 63.5H142.144V62.5H140.133V63.5ZM144.154 63.5H146.165V62.5H144.154V63.5ZM148.175 63.5H150.186V62.5H148.175V63.5ZM152.197 63.5H154.207V62.5H152.197V63.5ZM156.218 63.5H158.229V62.5H156.218V63.5ZM160.239 63.5H162.25V62.5H160.239V63.5ZM164.261 63.5H166.271V62.5H164.261V63.5ZM168.282 63.5H170.292V62.5H168.282V63.5ZM172.303 63.5H174.314V62.5H172.303V63.5ZM176.324 63.5H178.335V62.5H176.324V63.5ZM180.346 63.5H182.356V62.5H180.346V63.5ZM184.367 63.5H186.378V62.5H184.367V63.5ZM188.388 63.5H190.399V62.5H188.388V63.5ZM192.409 63.5H194.42V62.5H192.409V63.5ZM196.431 63.5H198.441V62.5H196.431V63.5ZM200.452 63.5H202.463V62.5H200.452V63.5ZM204.473 63.5H206.484V62.5H204.473V63.5ZM208.495 63.5H209.5V62.5H208.495V63.5ZM209.5 63.5C209.933 63.5 210.358 63.4575 210.768 63.3763L210.574 62.3953C210.227 62.4639 209.868 62.5 209.5 62.5V63.5ZM213.112 62.4049C213.82 61.9305 214.43 61.3205 214.905 60.6119L214.074 60.0555C213.672 60.6555 213.156 61.1722 212.556 61.5739L213.112 62.4049ZM215.876 58.268C215.958 57.8575 216 57.4335 216 57H215C215 57.368 214.964 57.727 214.895 58.0739L215.876 58.268ZM216 57V56H215V57H216ZM216 54V52H215V54H216ZM216 50V48H215V50H216ZM216 46V44H215V46H216ZM216 42V40H215V42H216ZM216 38V36H215V38H216ZM216 34V33H215V34H216Z" fill="#00A3FF" fill-opacity="0.68"/>
<path d="M363.833 33C363.833 34.4728 365.027 35.6667 366.5 35.6667C367.973 35.6667 369.167 34.4728 369.167 33C369.167 31.5272 367.973 30.3333 366.5 30.3333C365.027 30.3333 363.833 31.5272 363.833 33ZM93.5 32V33.25H94.5V32H93.5ZM93.5 35.75V37H94.5V35.75H93.5ZM93.5 37C93.5 37.4335 93.5425 37.8575 93.6237 38.268L94.6047 38.0739C94.5361 37.727 94.5 37.368 94.5 37H93.5ZM94.5951 40.6119C95.0695 41.3205 95.6795 41.9305 96.3881 42.4049L96.9445 41.5739C96.3445 41.1722 95.8278 40.6555 95.4261 40.0555L94.5951 40.6119ZM98.732 43.3763C99.1425 43.4575 99.5665 43.5 100 43.5V42.5C99.632 42.5 99.273 42.4639 98.9261 42.3953L98.732 43.3763ZM100 43.5H101.002V42.5H100V43.5ZM103.006 43.5H105.01V42.5H103.006V43.5ZM107.013 43.5H109.017V42.5H107.013V43.5ZM111.021 43.5H113.025V42.5H111.021V43.5ZM115.029 43.5H117.033V42.5H115.029V43.5ZM119.037 43.5H121.04V42.5H119.037V43.5ZM123.044 43.5H125.048V42.5H123.044V43.5ZM127.052 43.5H129.056V42.5H127.052V43.5ZM131.06 43.5H133.063V42.5H131.06V43.5ZM135.067 43.5H137.071V42.5H135.067V43.5ZM139.075 43.5H141.079V42.5H139.075V43.5ZM143.083 43.5H145.087V42.5H143.083V43.5ZM147.09 43.5H149.094V42.5H147.09V43.5ZM151.098 43.5H153.102V42.5H151.098V43.5ZM155.106 43.5H157.11V42.5H155.106V43.5ZM159.113 43.5H161.117V42.5H159.113V43.5ZM163.121 43.5H165.125V42.5H163.121V43.5ZM167.129 43.5H169.133V42.5H167.129V43.5ZM171.137 43.5H173.14V42.5H171.137V43.5ZM175.144 43.5H177.148V42.5H175.144V43.5ZM179.152 43.5H181.156V42.5H179.152V43.5ZM183.16 43.5H185.163V42.5H183.16V43.5ZM187.167 43.5H189.171V42.5H187.167V43.5ZM191.175 43.5H193.179V42.5H191.175V43.5ZM195.183 43.5H197.186V42.5H195.183V43.5ZM199.19 43.5H201.194V42.5H199.19V43.5ZM203.198 43.5H205.202V42.5H203.198V43.5ZM207.206 43.5H209.21V42.5H207.206V43.5ZM211.213 43.5H213.217V42.5H211.213V43.5ZM215.221 43.5H217.225V42.5H215.221V43.5ZM219.229 43.5H221.233V42.5H219.229V43.5ZM223.236 43.5H225.24V42.5H223.236V43.5ZM227.244 43.5H229.248V42.5H227.244V43.5ZM231.252 43.5H233.256V42.5H231.252V43.5ZM235.26 43.5H237.263V42.5H235.26V43.5ZM239.267 43.5H241.271V42.5H239.267V43.5ZM243.275 43.5H245.279V42.5H243.275V43.5ZM247.283 43.5H249.286V42.5H247.283V43.5ZM251.29 43.5H253.294V42.5H251.29V43.5ZM255.298 43.5H257.302V42.5H255.298V43.5ZM259.306 43.5H261.31V42.5H259.306V43.5ZM263.313 43.5H265.317V42.5H263.313V43.5ZM267.321 43.5H269.325V42.5H267.321V43.5ZM271.329 43.5H273.333V42.5H271.329V43.5ZM275.336 43.5H277.34V42.5H275.336V43.5ZM279.344 43.5H281.348V42.5H279.344V43.5ZM283.352 43.5H285.356V42.5H283.352V43.5ZM287.36 43.5H289.363V42.5H287.36V43.5ZM291.367 43.5H293.371V42.5H291.367V43.5ZM295.375 43.5H297.379V42.5H295.375V43.5ZM299.383 43.5H301.386V42.5H299.383V43.5ZM303.39 43.5H305.394V42.5H303.39V43.5ZM307.398 43.5H309.402V42.5H307.398V43.5ZM311.406 43.5H313.41V42.5H311.406V43.5ZM315.413 43.5H317.417V42.5H315.413V43.5ZM319.421 43.5H321.425V42.5H319.421V43.5ZM323.429 43.5H325.433V42.5H323.429V43.5ZM327.436 43.5H329.44V42.5H327.436V43.5ZM331.444 43.5H333.448V42.5H331.444V43.5ZM335.452 43.5H337.456V42.5H335.452V43.5ZM339.46 43.5H341.463V42.5H339.46V43.5ZM343.467 43.5H345.471V42.5H343.467V43.5ZM347.475 43.5H349.479V42.5H347.475V43.5ZM351.483 43.5H353.486V42.5H351.483V43.5ZM355.49 43.5H357.494V42.5H355.49V43.5ZM359.498 43.5H360.5V42.5H359.498V43.5ZM360.5 43.5C360.933 43.5 361.357 43.4575 361.768 43.3763L361.574 42.3953C361.227 42.4639 360.868 42.5 360.5 42.5V43.5ZM364.112 42.4049C364.82 41.9305 365.43 41.3205 365.905 40.6119L365.074 40.0555C364.672 40.6555 364.156 41.1722 363.556 41.5739L364.112 42.4049ZM366.876 38.268C366.958 37.8575 367 37.4335 367 37H366C366 37.368 365.964 37.727 365.895 38.0739L366.876 38.268ZM367 37V36H366V37H367ZM367 34V33H366V34H367Z" fill="#C9D1D9" fill-opacity="0.47"/>
<path d="M291.333 33C291.333 34.4728 292.527 35.6667 294 35.6667C295.473 35.6667 296.667 34.4728 296.667 33C296.667 31.5272 295.473 30.3333 294 30.3333C292.527 30.3333 291.333 31.5272 291.333 33ZM27 32V32.9375H28V32H27ZM27 34.8125V36.6875H28V34.8125H27ZM27 38.5625V40.4375H28V38.5625H27ZM27 42.3125V44.1875H28V42.3125H27ZM27 46.0625V47H28V46.0625H27ZM27 47C27 47.4335 27.0425 47.8575 27.1237 48.268L28.1047 48.0739C28.0361 47.727 28 47.368 28 47H27ZM28.0951 50.6119C28.5695 51.3205 29.1795 51.9305 29.8881 52.4049L30.4445 51.5739C29.8445 51.1722 29.3278 50.6555 28.9261 50.0555L28.0951 50.6119ZM32.232 53.3763C32.6425 53.4575 33.0665 53.5 33.5 53.5V52.5C33.132 52.5 32.773 52.4639 32.4261 52.3953L32.232 53.3763ZM33.5 53.5H34.4941V52.5H33.5V53.5ZM36.4824 53.5H38.4707V52.5H36.4824V53.5ZM40.459 53.5H42.4473V52.5H40.459V53.5ZM44.4355 53.5H46.4238V52.5H44.4355V53.5ZM48.4121 53.5H50.4004V52.5H48.4121V53.5ZM52.3887 53.5H54.377V52.5H52.3887V53.5ZM56.3652 53.5H58.3535V52.5H56.3652V53.5ZM60.3418 53.5H62.3301V52.5H60.3418V53.5ZM64.3184 53.5H66.3066V52.5H64.3184V53.5ZM68.2949 53.5H70.2832V52.5H68.2949V53.5ZM72.2715 53.5H74.2598V52.5H72.2715V53.5ZM76.248 53.5H78.2363V52.5H76.248V53.5ZM80.2246 53.5H82.2129V52.5H80.2246V53.5ZM84.2012 53.5H86.1895V52.5H84.2012V53.5ZM88.1777 53.5H90.166V52.5H88.1777V53.5ZM92.1543 53.5H94.1426V52.5H92.1543V53.5ZM96.1309 53.5H98.1191V52.5H96.1309V53.5ZM100.107 53.5H102.096V52.5H100.107V53.5ZM104.084 53.5H106.072V52.5H104.084V53.5ZM108.061 53.5H110.049V52.5H108.061V53.5ZM112.037 53.5H114.025V52.5H112.037V53.5ZM116.014 53.5H118.002V52.5H116.014V53.5ZM119.99 53.5H121.979V52.5H119.99V53.5ZM123.967 53.5H125.955V52.5H123.967V53.5ZM127.943 53.5H129.932V52.5H127.943V53.5ZM131.92 53.5H133.908V52.5H131.92V53.5ZM135.896 53.5H137.885V52.5H135.896V53.5ZM139.873 53.5H141.861V52.5H139.873V53.5ZM143.85 53.5H145.838V52.5H143.85V53.5ZM147.826 53.5H149.814V52.5H147.826V53.5ZM151.803 53.5H153.791V52.5H151.803V53.5ZM155.779 53.5H157.768V52.5H155.779V53.5ZM159.756 53.5H161.744V52.5H159.756V53.5ZM163.732 53.5H165.721V52.5H163.732V53.5ZM167.709 53.5H169.697V52.5H167.709V53.5ZM171.686 53.5H173.674V52.5H171.686V53.5ZM175.662 53.5H177.65V52.5H175.662V53.5ZM179.639 53.5H181.627V52.5H179.639V53.5ZM183.615 53.5H185.604V52.5H183.615V53.5ZM187.592 53.5H189.58V52.5H187.592V53.5ZM191.568 53.5H193.557V52.5H191.568V53.5ZM195.545 53.5H197.533V52.5H195.545V53.5ZM199.521 53.5H201.51V52.5H199.521V53.5ZM203.498 53.5H205.486V52.5H203.498V53.5ZM207.475 53.5H209.463V52.5H207.475V53.5ZM211.451 53.5H213.439V52.5H211.451V53.5ZM215.428 53.5H217.416V52.5H215.428V53.5ZM219.404 53.5H221.393V52.5H219.404V53.5ZM223.381 53.5H225.369V52.5H223.381V53.5ZM227.357 53.5H229.346V52.5H227.357V53.5ZM231.334 53.5H233.322V52.5H231.334V53.5ZM235.311 53.5H237.299V52.5H235.311V53.5ZM239.287 53.5H241.275V52.5H239.287V53.5ZM243.264 53.5H245.252V52.5H243.264V53.5ZM247.24 53.5H249.229V52.5H247.24V53.5ZM251.217 53.5H253.205V52.5H251.217V53.5ZM255.193 53.5H257.182V52.5H255.193V53.5ZM259.17 53.5H261.158V52.5H259.17V53.5ZM263.146 53.5H265.135V52.5H263.146V53.5ZM267.123 53.5H269.111V52.5H267.123V53.5ZM271.1 53.5H273.088V52.5H271.1V53.5ZM275.076 53.5H277.064V52.5H275.076V53.5ZM279.053 53.5H281.041V52.5H279.053V53.5ZM283.029 53.5H285.018V52.5H283.029V53.5ZM287.006 53.5H288V52.5H287.006V53.5ZM288 53.5C288.433 53.5 288.858 53.4575 289.268 53.3763L289.074 52.3953C288.727 52.4639 288.368 52.5 288 52.5V53.5ZM291.612 52.4049C292.32 51.9305 292.93 51.3205 293.405 50.6119L292.574 50.0555C292.172 50.6555 291.656 51.1722 291.056 51.5739L291.612 52.4049ZM294.376 48.268C294.458 47.8575 294.5 47.4335 294.5 47H293.5C293.5 47.368 293.464 47.727 293.395 48.0739L294.376 48.268ZM294.5 47V46.125H293.5V47H294.5ZM294.5 44.375V42.625H293.5V44.375H294.5ZM294.5 40.875V39.125H293.5V40.875H294.5ZM294.5 37.375V35.625H293.5V37.375H294.5ZM294.5 33.875V33H293.5V33.875H294.5Z" fill="#FF7A00" fill-opacity="0.67"/>
<rect x="0.5" y="0.5" width="413" height="72" rx="9.5" stroke="#1B222C"/>
</svg>
