<svg width="412" height="73" viewBox="0 0 412 73" fill="none" xmlns="http://www.w3.org/2000/svg">
<rect x="0.5" y="0.5" width="411" height="72" rx="9.5" fill="#0D1117"/>
<path d="M13.052 24.112C12.408 24.0373 11.848 23.8553 11.372 23.566C10.896 23.2767 10.5367 22.922 10.294 22.502L11.33 21.564C11.8247 22.3013 12.4873 22.7307 13.318 22.852L13.864 19.576L13.612 19.506C12.1093 19.1233 11.358 18.3113 11.358 17.07C11.358 16.6313 11.4373 16.2347 11.596 15.88C11.7547 15.5253 11.9787 15.2173 12.268 14.956C12.5667 14.6947 12.9213 14.4893 13.332 14.34C13.7427 14.1907 14.2047 14.102 14.718 14.074L14.956 12.646H16.104L15.866 14.13C16.4353 14.2233 16.916 14.4007 17.308 14.662C17.7093 14.9233 18.0173 15.2313 18.232 15.586L17.196 16.468C17 16.1787 16.7667 15.9453 16.496 15.768C16.2347 15.5907 15.9267 15.4693 15.572 15.404L15.068 18.456L15.362 18.526C16.118 18.722 16.6873 19.016 17.07 19.408C17.4527 19.8 17.644 20.3133 17.644 20.948C17.644 21.396 17.5647 21.8113 17.406 22.194C17.2473 22.5673 17.0187 22.894 16.72 23.174C16.4213 23.454 16.0573 23.678 15.628 23.846C15.208 24.014 14.7273 24.1167 14.186 24.154L13.948 25.582H12.8L13.052 24.112ZM12.87 16.93C12.87 17.2847 12.9727 17.5553 13.178 17.742C13.3833 17.9193 13.6913 18.064 14.102 18.176L14.564 15.376C14.0227 15.432 13.6027 15.6 13.304 15.88C13.0147 16.1507 12.87 16.5007 12.87 16.93ZM16.118 21.088C16.118 20.7613 16.0153 20.5 15.81 20.304C15.614 20.108 15.2873 19.9493 14.83 19.828L14.34 22.852C14.9 22.7773 15.334 22.586 15.642 22.278C15.9593 21.97 16.118 21.5733 16.118 21.088Z" fill="#00A3FF"/>
<path d="M21.31 24L22.304 17.994H20.442L20.652 16.776H24.012L23.662 18.82H23.746C24.0167 18.1947 24.362 17.7 24.782 17.336C25.202 16.9627 25.762 16.776 26.462 16.776H27.302L27.05 18.274H25.79C25.3887 18.274 25.0573 18.33 24.796 18.442C24.544 18.5447 24.32 18.7173 24.124 18.96C24.0307 19.072 23.9 19.254 23.732 19.506C23.5733 19.758 23.466 20.052 23.41 20.388L22.808 24H21.31ZM32.6305 22.292H32.5605C32.2899 22.8707 31.9725 23.328 31.6085 23.664C31.2445 24 30.7685 24.168 30.1805 24.168C29.5365 24.168 29.0465 23.9767 28.7105 23.594C28.3839 23.202 28.2205 22.698 28.2205 22.082C28.2205 21.914 28.2252 21.7413 28.2345 21.564C28.2532 21.3773 28.2859 21.1627 28.3325 20.92L29.0185 16.776H30.5165L29.8165 20.976C29.7979 21.1067 29.7792 21.2467 29.7605 21.396C29.7419 21.536 29.7325 21.6667 29.7325 21.788C29.7325 22.1147 29.8119 22.39 29.9705 22.614C30.1385 22.838 30.4092 22.95 30.7825 22.95C31.0625 22.95 31.3099 22.8847 31.5245 22.754C31.7485 22.6233 31.9539 22.446 32.1405 22.222C32.2339 22.11 32.3645 21.914 32.5325 21.634C32.7099 21.354 32.8312 21.0227 32.8965 20.64L33.5405 16.776H35.0385L33.8345 24H32.3365L32.6305 22.292Z" fill="#FF7A00"/>
<path d="M45.4305 24V14.228H49.0845C50.0179 14.228 50.7272 14.4893 51.2125 15.012C51.7072 15.5347 51.9545 16.2533 51.9545 17.168C51.9545 18.0827 51.7072 18.8013 51.2125 19.324C50.7272 19.8467 50.0179 20.108 49.0845 20.108H46.9985V24H45.4305ZM46.9985 18.806H48.8465C49.8172 18.806 50.3025 18.358 50.3025 17.462V16.86C50.3025 15.9733 49.8172 15.53 48.8465 15.53H46.9985V18.806ZM58.8231 16.776H60.3631L56.8631 25.4C56.6764 25.8667 56.4291 26.2167 56.1211 26.45C55.8224 26.6833 55.3884 26.8 54.8191 26.8H53.6011V25.568H55.3091L55.9671 23.902L53.0551 16.776H54.6511L55.7991 19.8L56.6951 22.278H56.7791L57.6751 19.8L58.8231 16.776ZM65.2296 24.168C64.6883 24.168 64.2029 24.0793 63.7736 23.902C63.3536 23.7247 62.9943 23.4727 62.6956 23.146C62.4063 22.8193 62.1823 22.4227 62.0236 21.956C61.8743 21.4893 61.7996 20.9667 61.7996 20.388C61.7996 19.8093 61.8743 19.2867 62.0236 18.82C62.1823 18.3533 62.4063 17.9567 62.6956 17.63C62.9943 17.3033 63.3536 17.0513 63.7736 16.874C64.2029 16.6967 64.6836 16.608 65.2156 16.608C65.9623 16.608 66.5596 16.7667 67.0076 17.084C67.4649 17.4013 67.8056 17.812 68.0296 18.316L66.8396 18.96C66.7089 18.624 66.5083 18.358 66.2376 18.162C65.9763 17.966 65.6356 17.868 65.2156 17.868C64.6369 17.868 64.1889 18.0453 63.8716 18.4C63.5543 18.7453 63.3956 19.2073 63.3956 19.786V20.99C63.3956 21.5593 63.5543 22.0213 63.8716 22.376C64.1889 22.7307 64.6463 22.908 65.2436 22.908C65.6916 22.908 66.0556 22.8053 66.3356 22.6C66.6249 22.3947 66.8536 22.1147 67.0216 21.76L68.1416 22.446C67.9083 22.95 67.5536 23.3653 67.0776 23.692C66.6016 24.0093 65.9856 24.168 65.2296 24.168ZM73.4841 24.168C72.9428 24.168 72.4575 24.0793 72.0281 23.902C71.6081 23.7247 71.2488 23.4727 70.9501 23.146C70.6608 22.8193 70.4368 22.4227 70.2781 21.956C70.1288 21.4893 70.0541 20.9667 70.0541 20.388C70.0541 19.8093 70.1288 19.2867 70.2781 18.82C70.4368 18.3533 70.6608 17.9567 70.9501 17.63C71.2488 17.3033 71.6081 17.0513 72.0281 16.874C72.4575 16.6967 72.9381 16.608 73.4701 16.608C74.2168 16.608 74.8141 16.7667 75.2621 17.084C75.7195 17.4013 76.0601 17.812 76.2841 18.316L75.0941 18.96C74.9635 18.624 74.7628 18.358 74.4921 18.162C74.2308 17.966 73.8901 17.868 73.4701 17.868C72.8915 17.868 72.4435 18.0453 72.1261 18.4C71.8088 18.7453 71.6501 19.2073 71.6501 19.786V20.99C71.6501 21.5593 71.8088 22.0213 72.1261 22.376C72.4435 22.7307 72.9008 22.908 73.4981 22.908C73.9461 22.908 74.3101 22.8053 74.5901 22.6C74.8795 22.3947 75.1081 22.1147 75.2761 21.76L76.3961 22.446C76.1628 22.95 75.8081 23.3653 75.3321 23.692C74.8561 24.0093 74.2401 24.168 73.4841 24.168ZM78.5607 16.776H80.0867V19.688H81.3887L83.1247 16.776H84.7627L83.1527 19.408C82.994 19.6787 82.84 19.87 82.6907 19.982C82.5413 20.094 82.3687 20.1733 82.1727 20.22V20.29C82.3967 20.3367 82.5833 20.4207 82.7327 20.542C82.882 20.654 83.036 20.85 83.1947 21.13L84.1047 22.768H84.8887V24H83.9927C83.6847 24 83.4187 23.93 83.1947 23.79C82.98 23.6407 82.7793 23.4027 82.5927 23.076L81.3887 20.92H80.0867V24H78.5607V16.776ZM86.6892 16.776H88.2012V19.884L88.0612 21.844H88.1312L91.3232 16.776H92.7652V24H91.2532V20.892L91.3932 18.932H91.3232L88.1312 24H86.6892V16.776ZM94.9437 16.776H96.4557V19.884L96.3157 21.844H96.3857L99.5777 16.776H101.02V24H99.5077V20.892L99.6477 18.932H99.5777L96.3857 24H94.9437V16.776ZM97.9817 15.824C97.4404 15.824 97.0017 15.7073 96.6657 15.474C96.3297 15.2313 96.0544 14.872 95.8397 14.396L95.4897 13.612L96.7637 13.164L97.2677 14.648C97.3517 14.6853 97.4637 14.7133 97.6037 14.732C97.7437 14.7413 97.8697 14.746 97.9817 14.746C98.0937 14.746 98.2197 14.7413 98.3597 14.732C98.4997 14.7133 98.6117 14.6853 98.6957 14.648L99.1997 13.164L100.474 13.612L100.124 14.396C99.9091 14.872 99.6337 15.2313 99.2977 15.474C98.9617 15.7073 98.5231 15.824 97.9817 15.824ZM113.721 18.008H111.187V16.776H117.795V18.008H115.247V24H113.721V18.008ZM122.899 24.168C122.349 24.168 121.854 24.0793 121.415 23.902C120.977 23.7247 120.608 23.4727 120.309 23.146C120.011 22.8193 119.782 22.4273 119.623 21.97C119.465 21.5033 119.385 20.9807 119.385 20.402C119.385 19.8233 119.465 19.3007 119.623 18.834C119.791 18.3673 120.02 17.9707 120.309 17.644C120.608 17.308 120.967 17.0513 121.387 16.874C121.807 16.6967 122.274 16.608 122.787 16.608C123.291 16.608 123.749 16.6967 124.159 16.874C124.57 17.042 124.92 17.2847 125.209 17.602C125.499 17.9193 125.718 18.2973 125.867 18.736C126.026 19.1747 126.105 19.66 126.105 20.192V20.766H120.925V21.004C120.925 21.5733 121.103 22.04 121.457 22.404C121.812 22.7587 122.302 22.936 122.927 22.936C123.394 22.936 123.791 22.838 124.117 22.642C124.453 22.4367 124.724 22.166 124.929 21.83L125.881 22.67C125.639 23.09 125.265 23.4447 124.761 23.734C124.267 24.0233 123.646 24.168 122.899 24.168ZM122.787 17.77C122.517 17.77 122.265 17.8167 122.031 17.91C121.807 18.0033 121.611 18.1387 121.443 18.316C121.285 18.484 121.159 18.6847 121.065 18.918C120.972 19.1513 120.925 19.408 120.925 19.688V19.786H124.551V19.646C124.551 19.0767 124.388 18.624 124.061 18.288C123.744 17.9427 123.319 17.77 122.787 17.77ZM128.088 16.776H129.614V19.688H130.916L132.652 16.776H134.29L132.68 19.408C132.521 19.6787 132.367 19.87 132.218 19.982C132.069 20.094 131.896 20.1733 131.7 20.22V20.29C131.924 20.3367 132.111 20.4207 132.26 20.542C132.409 20.654 132.563 20.85 132.722 21.13L133.632 22.768H134.416V24H133.52C133.212 24 132.946 23.93 132.722 23.79C132.507 23.6407 132.307 23.4027 132.12 23.076L130.916 20.92H129.614V24H128.088V16.776ZM139.52 24.168C138.979 24.168 138.494 24.0793 138.064 23.902C137.644 23.7247 137.285 23.4727 136.986 23.146C136.697 22.8193 136.473 22.4227 136.314 21.956C136.165 21.4893 136.09 20.9667 136.09 20.388C136.09 19.8093 136.165 19.2867 136.314 18.82C136.473 18.3533 136.697 17.9567 136.986 17.63C137.285 17.3033 137.644 17.0513 138.064 16.874C138.494 16.6967 138.974 16.608 139.506 16.608C140.253 16.608 140.85 16.7667 141.298 17.084C141.756 17.4013 142.096 17.812 142.32 18.316L141.13 18.96C141 18.624 140.799 18.358 140.528 18.162C140.267 17.966 139.926 17.868 139.506 17.868C138.928 17.868 138.48 18.0453 138.162 18.4C137.845 18.7453 137.686 19.2073 137.686 19.786V20.99C137.686 21.5593 137.845 22.0213 138.162 22.376C138.48 22.7307 138.937 22.908 139.534 22.908C139.982 22.908 140.346 22.8053 140.626 22.6C140.916 22.3947 141.144 22.1147 141.312 21.76L142.432 22.446C142.199 22.95 141.844 23.3653 141.368 23.692C140.892 24.0093 140.276 24.168 139.52 24.168ZM146.739 18.008H144.205V16.776H150.813V18.008H148.265V24H146.739V18.008Z" fill="white" fill-opacity="0.6"/>
<rect x="172" y="10" width="85" height="23" rx="4" fill="#161B22"/>
<path d="M185.719 19.5653C185.673 19.1619 185.486 18.8494 185.156 18.6278C184.827 18.4034 184.412 18.2912 183.912 18.2912C183.554 18.2912 183.244 18.348 182.983 18.4616C182.722 18.5724 182.518 18.7259 182.374 18.9219C182.232 19.1151 182.161 19.3352 182.161 19.5824C182.161 19.7898 182.209 19.9687 182.305 20.1193C182.405 20.2699 182.534 20.3963 182.693 20.4986C182.855 20.598 183.028 20.6818 183.213 20.75C183.398 20.8153 183.575 20.8693 183.746 20.9119L184.598 21.1335C184.876 21.2017 185.162 21.294 185.455 21.4105C185.747 21.527 186.018 21.6804 186.268 21.8707C186.518 22.0611 186.72 22.2969 186.874 22.5781C187.03 22.8594 187.108 23.196 187.108 23.5881C187.108 24.0824 186.98 24.5213 186.724 24.9048C186.472 25.2884 186.104 25.5909 185.621 25.8125C185.141 26.0341 184.56 26.1449 183.878 26.1449C183.224 26.1449 182.659 26.0412 182.182 25.8338C181.705 25.6264 181.331 25.3324 181.061 24.9517C180.791 24.5682 180.642 24.1136 180.614 23.5881H181.935C181.96 23.9034 182.063 24.1662 182.241 24.3764C182.423 24.5838 182.655 24.7386 182.936 24.8409C183.22 24.9403 183.531 24.9901 183.869 24.9901C184.241 24.9901 184.572 24.9318 184.862 24.8153C185.155 24.696 185.385 24.5312 185.553 24.321C185.72 24.108 185.804 23.8594 185.804 23.5753C185.804 23.3168 185.73 23.1051 185.582 22.9403C185.438 22.7756 185.24 22.6392 184.99 22.5312C184.743 22.4233 184.463 22.3281 184.151 22.2457L183.119 21.9645C182.42 21.7741 181.866 21.4943 181.457 21.125C181.051 20.7557 180.848 20.267 180.848 19.6591C180.848 19.1562 180.984 18.7173 181.257 18.3423C181.53 17.9673 181.899 17.6761 182.365 17.4688C182.831 17.2585 183.357 17.1534 183.942 17.1534C184.533 17.1534 185.054 17.2571 185.506 17.4645C185.96 17.6719 186.318 17.9574 186.58 18.321C186.841 18.6818 186.977 19.0966 186.989 19.5653H185.719ZM188.561 26V17.2727H194.033V18.4062H189.878V21.0653H193.748V22.1946H189.878V24.8665H194.084V26H188.561ZM195.672 26V17.2727H198.783C199.462 17.2727 200.024 17.3963 200.47 17.6435C200.916 17.8906 201.25 18.2287 201.472 18.6577C201.693 19.0838 201.804 19.5639 201.804 20.098C201.804 20.6349 201.692 21.1179 201.467 21.5469C201.246 21.973 200.911 22.3111 200.462 22.5611C200.016 22.8082 199.455 22.9318 198.778 22.9318H196.639V21.8153H198.659C199.088 21.8153 199.436 21.7415 199.703 21.5938C199.97 21.4432 200.166 21.2386 200.291 20.9801C200.416 20.7216 200.479 20.4276 200.479 20.098C200.479 19.7685 200.416 19.4759 200.291 19.2202C200.166 18.9645 199.969 18.7642 199.699 18.6193C199.432 18.4744 199.08 18.402 198.642 18.402H196.989V26H195.672ZM203.039 26H201.641L204.782 17.2727H206.303L209.444 26H208.046L205.579 18.858H205.511L203.039 26ZM203.274 22.5824H207.808V23.6903H203.274V22.5824ZM210.584 26V17.2727H213.695C214.371 17.2727 214.932 17.3892 215.378 17.6222C215.827 17.8551 216.162 18.1776 216.384 18.5895C216.606 18.9986 216.716 19.4716 216.716 20.0085C216.716 20.5426 216.604 21.0128 216.38 21.419C216.158 21.8224 215.823 22.1364 215.374 22.3608C214.928 22.5852 214.367 22.6974 213.691 22.6974H211.334V21.5639H213.571C213.998 21.5639 214.344 21.5028 214.611 21.3807C214.881 21.2585 215.079 21.081 215.204 20.848C215.329 20.6151 215.391 20.3352 215.391 20.0085C215.391 19.679 215.327 19.3935 215.199 19.152C215.074 18.9105 214.877 18.7259 214.607 18.598C214.34 18.4673 213.989 18.402 213.554 18.402H211.901V26H210.584ZM214.893 22.0625L217.049 26H215.549L213.435 22.0625H214.893ZM218.936 26H217.538L220.679 17.2727H222.2L225.341 26H223.943L221.476 18.858H221.407L218.936 26ZM219.17 22.5824H223.704V23.6903H219.17V22.5824ZM225.019 18.4062V17.2727H231.774V18.4062H229.051V26H227.738V18.4062H225.019ZM240.352 21.6364C240.352 22.5682 240.182 23.3693 239.841 24.0398C239.5 24.7074 239.033 25.2216 238.439 25.5824C237.848 25.9403 237.176 26.1193 236.423 26.1193C235.667 26.1193 234.993 25.9403 234.399 25.5824C233.808 25.2216 233.342 24.706 233.001 24.0355C232.66 23.3651 232.49 22.5653 232.49 21.6364C232.49 20.7045 232.66 19.9048 233.001 19.2372C233.342 18.5668 233.808 18.0526 234.399 17.6946C234.993 17.3338 235.667 17.1534 236.423 17.1534C237.176 17.1534 237.848 17.3338 238.439 17.6946C239.033 18.0526 239.5 18.5668 239.841 19.2372C240.182 19.9048 240.352 20.7045 240.352 21.6364ZM239.048 21.6364C239.048 20.9261 238.933 20.3281 238.703 19.8423C238.476 19.3537 238.163 18.9844 237.765 18.7344C237.371 18.4815 236.923 18.3551 236.423 18.3551C235.92 18.3551 235.471 18.4815 235.077 18.7344C234.682 18.9844 234.369 19.3537 234.139 19.8423C233.912 20.3281 233.798 20.9261 233.798 21.6364C233.798 22.3466 233.912 22.946 234.139 23.4347C234.369 23.9205 234.682 24.2898 235.077 24.5426C235.471 24.7926 235.92 24.9176 236.423 24.9176C236.923 24.9176 237.371 24.7926 237.765 24.5426C238.163 24.2898 238.476 23.9205 238.703 23.4347C238.933 22.946 239.048 22.3466 239.048 21.6364ZM241.874 26V17.2727H244.985C245.661 17.2727 246.222 17.3892 246.668 17.6222C247.117 17.8551 247.452 18.1776 247.674 18.5895C247.895 18.9986 248.006 19.4716 248.006 20.0085C248.006 20.5426 247.894 21.0128 247.669 21.419C247.448 21.8224 247.112 22.1364 246.664 22.3608C246.218 22.5852 245.656 22.6974 244.98 22.6974H242.624V21.5639H244.861C245.287 21.5639 245.634 21.5028 245.901 21.3807C246.171 21.2585 246.368 21.081 246.493 20.848C246.618 20.6151 246.681 20.3352 246.681 20.0085C246.681 19.679 246.617 19.3935 246.489 19.152C246.364 18.9105 246.166 18.7259 245.897 18.598C245.629 18.4673 245.279 18.402 244.844 18.402H243.191V26H241.874ZM246.182 22.0625L248.338 26H246.838L244.725 22.0625H246.182Z" fill="#00A3FF"/>
<rect x="172.5" y="10.5" width="84" height="22" rx="3.5" stroke="white" stroke-opacity="0.05"/>
<rect x="267" y="10" width="50" height="23" rx="4" fill="#161B22"/>
<path d="M275.959 26V17.2727H277.276V24.8665H281.23V26H275.959ZM283.795 26H282.397L285.538 17.2727H287.059L290.2 26H288.802L286.335 18.858H286.266L283.795 26ZM284.029 22.5824H288.563V23.6903H284.029V22.5824ZM298.384 17.2727V26H297.174L292.738 19.5994H292.657V26H291.34V17.2727H292.559L296.999 23.6818H297.08V17.2727H298.384ZM306.091 20.0298C306.009 19.7713 305.898 19.5398 305.759 19.3352C305.622 19.1278 305.459 18.9517 305.269 18.8068C305.078 18.6591 304.861 18.5469 304.617 18.4702C304.375 18.3935 304.109 18.3551 303.82 18.3551C303.328 18.3551 302.885 18.4815 302.49 18.7344C302.095 18.9872 301.783 19.358 301.553 19.8466C301.325 20.3324 301.212 20.9276 301.212 21.6321C301.212 22.3395 301.327 22.9375 301.557 23.4261C301.787 23.9148 302.102 24.2855 302.503 24.5384C302.903 24.7912 303.359 24.9176 303.871 24.9176C304.345 24.9176 304.759 24.821 305.111 24.6278C305.466 24.4347 305.74 24.1619 305.933 23.8097C306.129 23.4545 306.227 23.0369 306.227 22.5568L306.568 22.6207H304.071V21.5341H307.502V22.527C307.502 23.2599 307.345 23.8963 307.033 24.4361C306.723 24.973 306.294 25.3878 305.746 25.6804C305.2 25.973 304.575 26.1193 303.871 26.1193C303.081 26.1193 302.388 25.9375 301.791 25.5739C301.198 25.2102 300.734 24.6946 300.402 24.027C300.07 23.3565 299.903 22.5611 299.903 21.6406C299.903 20.9446 300 20.3196 300.193 19.7656C300.386 19.2116 300.658 18.7415 301.007 18.3551C301.359 17.9659 301.773 17.669 302.247 17.4645C302.725 17.2571 303.246 17.1534 303.811 17.1534C304.283 17.1534 304.722 17.223 305.128 17.3622C305.537 17.5014 305.901 17.6989 306.219 17.9545C306.54 18.2102 306.805 18.5142 307.016 18.8665C307.226 19.2159 307.368 19.6037 307.442 20.0298H306.091Z" fill="#FF7A00"/>
<rect x="267.5" y="10.5" width="49" height="22" rx="3.5" stroke="white" stroke-opacity="0.05"/>
<rect x="327" y="10" width="75" height="23" rx="4" fill="#161B22"/>
<path d="M343.207 20.1108H341.878C341.827 19.8267 341.732 19.5767 341.592 19.3608C341.453 19.1449 341.283 18.9616 341.081 18.8111C340.879 18.6605 340.653 18.5469 340.403 18.4702C340.156 18.3935 339.893 18.3551 339.615 18.3551C339.112 18.3551 338.662 18.4815 338.264 18.7344C337.869 18.9872 337.557 19.358 337.327 19.8466C337.099 20.3352 336.986 20.9318 336.986 21.6364C336.986 22.3466 337.099 22.946 337.327 23.4347C337.557 23.9233 337.871 24.2926 338.268 24.5426C338.666 24.7926 339.114 24.9176 339.611 24.9176C339.886 24.9176 340.148 24.8807 340.395 24.8068C340.645 24.7301 340.871 24.6179 341.072 24.4702C341.274 24.3224 341.445 24.142 341.584 23.929C341.726 23.7131 341.824 23.4659 341.878 23.1875L343.207 23.1918C343.136 23.6207 342.999 24.0156 342.794 24.3764C342.592 24.7344 342.332 25.044 342.014 25.3054C341.699 25.5639 341.338 25.7642 340.932 25.9062C340.526 26.0483 340.082 26.1193 339.602 26.1193C338.847 26.1193 338.173 25.9403 337.582 25.5824C336.991 25.2216 336.526 24.706 336.185 24.0355C335.847 23.3651 335.678 22.5653 335.678 21.6364C335.678 20.7045 335.848 19.9048 336.189 19.2372C336.53 18.5668 336.996 18.0526 337.587 17.6946C338.178 17.3338 338.849 17.1534 339.602 17.1534C340.065 17.1534 340.497 17.2202 340.898 17.3537C341.301 17.4844 341.663 17.6776 341.984 17.9332C342.305 18.1861 342.571 18.4957 342.781 18.8622C342.991 19.2259 343.134 19.642 343.207 20.1108ZM352.244 21.6364C352.244 22.5682 352.074 23.3693 351.733 24.0398C351.392 24.7074 350.924 25.2216 350.331 25.5824C349.74 25.9403 349.068 26.1193 348.315 26.1193C347.559 26.1193 346.885 25.9403 346.291 25.5824C345.7 25.2216 345.234 24.706 344.893 24.0355C344.552 23.3651 344.382 22.5653 344.382 21.6364C344.382 20.7045 344.552 19.9048 344.893 19.2372C345.234 18.5668 345.7 18.0526 346.291 17.6946C346.885 17.3338 347.559 17.1534 348.315 17.1534C349.068 17.1534 349.74 17.3338 350.331 17.6946C350.924 18.0526 351.392 18.5668 351.733 19.2372C352.074 19.9048 352.244 20.7045 352.244 21.6364ZM350.94 21.6364C350.94 20.9261 350.825 20.3281 350.595 19.8423C350.368 19.3537 350.055 18.9844 349.657 18.7344C349.262 18.4815 348.815 18.3551 348.315 18.3551C347.812 18.3551 347.363 18.4815 346.968 18.7344C346.574 18.9844 346.261 19.3537 346.031 19.8423C345.804 20.3281 345.69 20.9261 345.69 21.6364C345.69 22.3466 345.804 22.946 346.031 23.4347C346.261 23.9205 346.574 24.2898 346.968 24.5426C347.363 24.7926 347.812 24.9176 348.315 24.9176C348.815 24.9176 349.262 24.7926 349.657 24.5426C350.055 24.2898 350.368 23.9205 350.595 23.4347C350.825 22.946 350.94 22.3466 350.94 21.6364ZM360.81 17.2727V26H359.599L355.163 19.5994H355.082V26H353.766V17.2727H354.984L359.425 23.6818H359.506V17.2727H360.81ZM362.18 18.4062V17.2727H368.934V18.4062H366.211V26H364.899V18.4062H362.18ZM370.307 26V17.2727H375.779V18.4062H371.624V21.0653H375.493V22.1946H371.624V24.8665H375.83V26H370.307ZM384.461 17.2727V26H383.251L378.815 19.5994H378.734V26H377.417V17.2727H378.636L383.076 23.6818H383.157V17.2727H384.461ZM385.832 18.4062V17.2727H392.586V18.4062H389.863V26H388.551V18.4062H385.832Z" fill="white" fill-opacity="0.6"/>
<rect x="327.5" y="10.5" width="74" height="22" rx="3.5" stroke="white" stroke-opacity="0.05"/>
<path d="M211.833 33C211.833 34.4728 213.027 35.6667 214.5 35.6667C215.973 35.6667 217.167 34.4728 217.167 33C217.167 31.5272 215.973 30.3333 214.5 30.3333C213.027 30.3333 211.833 31.5272 211.833 33ZM14 32V33.0417H15V32H14ZM14 35.125V37.2083H15V35.125H14ZM14 39.2917V41.375H15V39.2917H14ZM14 43.4583V45.5417H15V43.4583H14ZM14 47.625V49.7083H15V47.625H14ZM14 51.7917V53.875H15V51.7917H14ZM14 55.9583V57H15V55.9583H14ZM14 57C14 57.4335 14.0425 57.8575 14.1237 58.268L15.1047 58.0739C15.0361 57.727 15 57.368 15 57H14ZM15.0951 60.6119C15.5695 61.3205 16.1795 61.9305 16.8881 62.4049L17.4445 61.5739C16.8445 61.1722 16.3278 60.6555 15.9261 60.0555L15.0951 60.6119ZM19.232 63.3763C19.6425 63.4575 20.0665 63.5 20.5 63.5V62.5C20.132 62.5 19.773 62.4639 19.4261 62.3953L19.232 63.3763ZM20.5 63.5H21.5V62.5H20.5V63.5ZM23.5 63.5H25.5V62.5H23.5V63.5ZM27.5 63.5H29.5V62.5H27.5V63.5ZM31.5 63.5H33.5V62.5H31.5V63.5ZM35.5 63.5H37.5V62.5H35.5V63.5ZM39.5 63.5H41.5V62.5H39.5V63.5ZM43.5 63.5H45.5V62.5H43.5V63.5ZM47.5 63.5H49.5V62.5H47.5V63.5ZM51.5 63.5H53.5V62.5H51.5V63.5ZM55.5 63.5H57.5V62.5H55.5V63.5ZM59.5 63.5H61.5V62.5H59.5V63.5ZM63.5 63.5H65.5V62.5H63.5V63.5ZM67.5 63.5H69.5V62.5H67.5V63.5ZM71.5 63.5H73.5V62.5H71.5V63.5ZM75.5 63.5H77.5V62.5H75.5V63.5ZM79.5 63.5H81.5V62.5H79.5V63.5ZM83.5 63.5H85.5V62.5H83.5V63.5ZM87.5 63.5H89.5V62.5H87.5V63.5ZM91.5 63.5H93.5V62.5H91.5V63.5ZM95.5 63.5H97.5V62.5H95.5V63.5ZM99.5 63.5H101.5V62.5H99.5V63.5ZM103.5 63.5H105.5V62.5H103.5V63.5ZM107.5 63.5H109.5V62.5H107.5V63.5ZM111.5 63.5H113.5V62.5H111.5V63.5ZM115.5 63.5H117.5V62.5H115.5V63.5ZM119.5 63.5H121.5V62.5H119.5V63.5ZM123.5 63.5H125.5V62.5H123.5V63.5ZM127.5 63.5H129.5V62.5H127.5V63.5ZM131.5 63.5H133.5V62.5H131.5V63.5ZM135.5 63.5H137.5V62.5H135.5V63.5ZM139.5 63.5H141.5V62.5H139.5V63.5ZM143.5 63.5H145.5V62.5H143.5V63.5ZM147.5 63.5H149.5V62.5H147.5V63.5ZM151.5 63.5H153.5V62.5H151.5V63.5ZM155.5 63.5H157.5V62.5H155.5V63.5ZM159.5 63.5H161.5V62.5H159.5V63.5ZM163.5 63.5H165.5V62.5H163.5V63.5ZM167.5 63.5H169.5V62.5H167.5V63.5ZM171.5 63.5H173.5V62.5H171.5V63.5ZM175.5 63.5H177.5V62.5H175.5V63.5ZM179.5 63.5H181.5V62.5H179.5V63.5ZM183.5 63.5H185.5V62.5H183.5V63.5ZM187.5 63.5H189.5V62.5H187.5V63.5ZM191.5 63.5H193.5V62.5H191.5V63.5ZM195.5 63.5H197.5V62.5H195.5V63.5ZM199.5 63.5H201.5V62.5H199.5V63.5ZM203.5 63.5H205.5V62.5H203.5V63.5ZM207.5 63.5H208.5V62.5H207.5V63.5ZM208.5 63.5C208.933 63.5 209.358 63.4575 209.768 63.3763L209.574 62.3953C209.227 62.4639 208.868 62.5 208.5 62.5V63.5ZM212.112 62.4049C212.82 61.9305 213.43 61.3205 213.905 60.6119L213.074 60.0555C212.672 60.6555 212.156 61.1722 211.556 61.5739L212.112 62.4049ZM214.876 58.268C214.958 57.8575 215 57.4335 215 57H214C214 57.368 213.964 57.727 213.895 58.0739L214.876 58.268ZM215 57V56H214V57H215ZM215 54V52H214V54H215ZM215 50V48H214V50H215ZM215 46V44H214V46H215ZM215 42V40H214V42H215ZM215 38V36H214V38H215ZM215 34V33H214V34H215Z" fill="#00A3FF" fill-opacity="0.68"/>
<path d="M361.833 33C361.833 34.4728 363.027 35.6667 364.5 35.6667C365.973 35.6667 367.167 34.4728 367.167 33C367.167 31.5272 365.973 30.3333 364.5 30.3333C363.027 30.3333 361.833 31.5272 361.833 33ZM93.5 32V33.25H94.5V32H93.5ZM93.5 35.75V37H94.5V35.75H93.5ZM93.5 37C93.5 37.4335 93.5425 37.8575 93.6237 38.268L94.6047 38.0739C94.5361 37.727 94.5 37.368 94.5 37H93.5ZM94.5951 40.6119C95.0695 41.3205 95.6795 41.9305 96.3881 42.4049L96.9445 41.5739C96.3445 41.1722 95.8278 40.6555 95.4261 40.0555L94.5951 40.6119ZM98.732 43.3763C99.1425 43.4575 99.5665 43.5 100 43.5V42.5C99.632 42.5 99.273 42.4639 98.9261 42.3953L98.732 43.3763ZM100 43.5H100.994V42.5H100V43.5ZM102.983 43.5H104.971V42.5H102.983V43.5ZM106.96 43.5H108.948V42.5H106.96V43.5ZM110.937 43.5H112.925V42.5H110.937V43.5ZM114.913 43.5H116.902V42.5H114.913V43.5ZM118.89 43.5H120.879V42.5H118.89V43.5ZM122.867 43.5H124.856V42.5H122.867V43.5ZM126.844 43.5H128.833V42.5H126.844V43.5ZM130.821 43.5H132.81V42.5H130.821V43.5ZM134.798 43.5H136.787V42.5H134.798V43.5ZM138.775 43.5H140.763V42.5H138.775V43.5ZM142.752 43.5H144.74V42.5H142.752V43.5ZM146.729 43.5H148.717V42.5H146.729V43.5ZM150.706 43.5H152.694V42.5H150.706V43.5ZM154.683 43.5H156.671V42.5H154.683V43.5ZM158.66 43.5H160.648V42.5H158.66V43.5ZM162.637 43.5H164.625V42.5H162.637V43.5ZM166.613 43.5H168.602V42.5H166.613V43.5ZM170.59 43.5H172.579V42.5H170.59V43.5ZM174.567 43.5H176.556V42.5H174.567V43.5ZM178.544 43.5H180.533V42.5H178.544V43.5ZM182.521 43.5H184.51V42.5H182.521V43.5ZM186.498 43.5H188.487V42.5H186.498V43.5ZM190.475 43.5H192.463V42.5H190.475V43.5ZM194.452 43.5H196.44V42.5H194.452V43.5ZM198.429 43.5H200.417V42.5H198.429V43.5ZM202.406 43.5H204.394V42.5H202.406V43.5ZM206.383 43.5H208.371V42.5H206.383V43.5ZM210.36 43.5H212.348V42.5H210.36V43.5ZM214.337 43.5H216.325V42.5H214.337V43.5ZM218.314 43.5H220.302V42.5H218.314V43.5ZM222.29 43.5H224.279V42.5H222.29V43.5ZM226.267 43.5H228.256V42.5H226.267V43.5ZM230.244 43.5H232.233V42.5H230.244V43.5ZM234.221 43.5H236.21V42.5H234.221V43.5ZM238.198 43.5H240.187V42.5H238.198V43.5ZM242.175 43.5H244.164V42.5H242.175V43.5ZM246.152 43.5H248.14V42.5H246.152V43.5ZM250.129 43.5H252.117V42.5H250.129V43.5ZM254.106 43.5H256.094V42.5H254.106V43.5ZM258.083 43.5H260.071V42.5H258.083V43.5ZM262.06 43.5H264.048V42.5H262.06V43.5ZM266.037 43.5H268.025V42.5H266.037V43.5ZM270.014 43.5H272.002V42.5H270.014V43.5ZM273.991 43.5H275.979V42.5H273.991V43.5ZM277.967 43.5H279.956V42.5H277.967V43.5ZM281.944 43.5H283.933V42.5H281.944V43.5ZM285.921 43.5H287.91V42.5H285.921V43.5ZM289.898 43.5H291.887V42.5H289.898V43.5ZM293.875 43.5H295.864V42.5H293.875V43.5ZM297.852 43.5H299.841V42.5H297.852V43.5ZM301.829 43.5H303.817V42.5H301.829V43.5ZM305.806 43.5H307.794V42.5H305.806V43.5ZM309.783 43.5H311.771V42.5H309.783V43.5ZM313.76 43.5H315.748V42.5H313.76V43.5ZM317.737 43.5H319.725V42.5H317.737V43.5ZM321.714 43.5H323.702V42.5H321.714V43.5ZM325.691 43.5H327.679V42.5H325.691V43.5ZM329.668 43.5H331.656V42.5H329.668V43.5ZM333.644 43.5H335.633V42.5H333.644V43.5ZM337.621 43.5H339.61V42.5H337.621V43.5ZM341.598 43.5H343.587V42.5H341.598V43.5ZM345.575 43.5H347.564V42.5H345.575V43.5ZM349.552 43.5H351.541V42.5H349.552V43.5ZM353.529 43.5H355.518V42.5H353.529V43.5ZM357.506 43.5H358.5V42.5H357.506V43.5ZM358.5 43.5C358.933 43.5 359.357 43.4575 359.768 43.3763L359.574 42.3953C359.227 42.4639 358.868 42.5 358.5 42.5V43.5ZM362.112 42.4049C362.82 41.9305 363.43 41.3205 363.905 40.6119L363.074 40.0555C362.672 40.6555 362.156 41.1722 361.556 41.5739L362.112 42.4049ZM364.876 38.268C364.958 37.8575 365 37.4335 365 37H364C364 37.368 363.964 37.727 363.895 38.0739L364.876 38.268ZM365 37V36H364V37H365ZM365 34V33H364V34H365Z" fill="#C9D1D9" fill-opacity="0.47"/>
<path d="M289.333 33C289.333 34.4728 290.527 35.6667 292 35.6667C293.473 35.6667 294.667 34.4728 294.667 33C294.667 31.5272 293.473 30.3333 292 30.3333C290.527 30.3333 289.333 31.5272 289.333 33ZM27 32V32.9375H28V32H27ZM27 34.8125V36.6875H28V34.8125H27ZM27 38.5625V40.4375H28V38.5625H27ZM27 42.3125V44.1875H28V42.3125H27ZM27 46.0625V47H28V46.0625H27ZM27 47C27 47.4335 27.0425 47.8575 27.1237 48.268L28.1047 48.0739C28.0361 47.727 28 47.368 28 47H27ZM28.0951 50.6119C28.5695 51.3205 29.1795 51.9305 29.8881 52.4049L30.4445 51.5739C29.8445 51.1722 29.3278 50.6555 28.9261 50.0555L28.0951 50.6119ZM32.232 53.3763C32.6425 53.4575 33.0665 53.5 33.5 53.5V52.5C33.132 52.5 32.773 52.4639 32.4261 52.3953L32.232 53.3763ZM33.5 53.5H34.502V52.5H33.5V53.5ZM36.506 53.5H38.5099V52.5H36.506V53.5ZM40.5139 53.5H42.5179V52.5H40.5139V53.5ZM44.5218 53.5H46.5258V52.5H44.5218V53.5ZM48.5298 53.5H50.5337V52.5H48.5298V53.5ZM52.5377 53.5H54.5417V52.5H52.5377V53.5ZM56.5456 53.5H58.5496V52.5H56.5456V53.5ZM60.5536 53.5H62.5575V52.5H60.5536V53.5ZM64.5615 53.5H66.5655V52.5H64.5615V53.5ZM68.5694 53.5H70.5734V52.5H68.5694V53.5ZM72.5774 53.5H74.5813V52.5H72.5774V53.5ZM76.5853 53.5H78.5893V52.5H76.5853V53.5ZM80.5932 53.5H82.5972V52.5H80.5932V53.5ZM84.6012 53.5H86.6051V52.5H84.6012V53.5ZM88.6091 53.5H90.6131V52.5H88.6091V53.5ZM92.617 53.5H94.621V52.5H92.617V53.5ZM96.625 53.5H98.6289V52.5H96.625V53.5ZM100.633 53.5H102.637V52.5H100.633V53.5ZM104.641 53.5H106.645V52.5H104.641V53.5ZM108.649 53.5H110.653V52.5H108.649V53.5ZM112.657 53.5H114.661V52.5H112.657V53.5ZM116.665 53.5H118.669V52.5H116.665V53.5ZM120.673 53.5H122.677V52.5H120.673V53.5ZM124.681 53.5H126.684V52.5H124.681V53.5ZM128.688 53.5H130.692V52.5H128.688V53.5ZM132.696 53.5H134.7V52.5H132.696V53.5ZM136.704 53.5H138.708V52.5H136.704V53.5ZM140.712 53.5H142.716V52.5H140.712V53.5ZM144.72 53.5H146.724V52.5H144.72V53.5ZM148.728 53.5H150.732V52.5H148.728V53.5ZM152.736 53.5H154.74V52.5H152.736V53.5ZM156.744 53.5H158.748V52.5H156.744V53.5ZM160.752 53.5H162.756V52.5H160.752V53.5ZM164.76 53.5H166.764V52.5H164.76V53.5ZM168.768 53.5H170.772V52.5H168.768V53.5ZM172.776 53.5H174.78V52.5H172.776V53.5ZM176.784 53.5H178.788V52.5H176.784V53.5ZM180.792 53.5H182.796V52.5H180.792V53.5ZM184.8 53.5H186.804V52.5H184.8V53.5ZM188.807 53.5H190.811V52.5H188.807V53.5ZM192.815 53.5H194.819V52.5H192.815V53.5ZM196.823 53.5H198.827V52.5H196.823V53.5ZM200.831 53.5H202.835V52.5H200.831V53.5ZM204.839 53.5H206.843V52.5H204.839V53.5ZM208.847 53.5H210.851V52.5H208.847V53.5ZM212.855 53.5H214.859V52.5H212.855V53.5ZM216.863 53.5H218.867V52.5H216.863V53.5ZM220.871 53.5H222.875V52.5H220.871V53.5ZM224.879 53.5H226.883V52.5H224.879V53.5ZM228.887 53.5H230.891V52.5H228.887V53.5ZM232.895 53.5H234.899V52.5H232.895V53.5ZM236.903 53.5H238.907V52.5H236.903V53.5ZM240.911 53.5H242.915V52.5H240.911V53.5ZM244.919 53.5H246.923V52.5H244.919V53.5ZM248.926 53.5H250.93V52.5H248.926V53.5ZM252.934 53.5H254.938V52.5H252.934V53.5ZM256.942 53.5H258.946V52.5H256.942V53.5ZM260.95 53.5H262.954V52.5H260.95V53.5ZM264.958 53.5H266.962V52.5H264.958V53.5ZM268.966 53.5H270.97V52.5H268.966V53.5ZM272.974 53.5H274.978V52.5H272.974V53.5ZM276.982 53.5H278.986V52.5H276.982V53.5ZM280.99 53.5H282.994V52.5H280.99V53.5ZM284.998 53.5H286V52.5H284.998V53.5ZM286 53.5C286.433 53.5 286.857 53.4575 287.268 53.3763L287.074 52.3953C286.727 52.4639 286.368 52.5 286 52.5V53.5ZM289.612 52.4049C290.32 51.9305 290.93 51.3205 291.405 50.6119L290.574 50.0555C290.172 50.6555 289.656 51.1722 289.056 51.5739L289.612 52.4049ZM292.376 48.268C292.458 47.8575 292.5 47.4335 292.5 47H291.5C291.5 47.368 291.464 47.727 291.395 48.0739L292.376 48.268ZM292.5 47V46.125H291.5V47H292.5ZM292.5 44.375V42.625H291.5V44.375H292.5ZM292.5 40.875V39.125H291.5V40.875H292.5ZM292.5 37.375V35.625H291.5V37.375H292.5ZM292.5 33.875V33H291.5V33.875H292.5Z" fill="#FF7A00" fill-opacity="0.67"/>
<rect x="0.5" y="0.5" width="411" height="72" rx="9.5" stroke="#1B222C"/>
</svg>
