<svg width="216" height="100" viewBox="0 0 216 100" fill="none" xmlns="http://www.w3.org/2000/svg">
<rect x="0.5" y="0.5" width="69" height="99" rx="9.5" fill="#0D1117"/>
<path d="M10 12C10 10.8954 10.8954 10 12 10H22.5V15C22.5 19.1421 19.1421 22.5 15 22.5H10V12Z" fill="#C9D1D9"/>
<path d="M10 35H22.5V42.5C22.5 45.2614 20.2614 47.5 17.5 47.5H10V35Z" fill="#C9D1D9"/>
<path d="M10 22.5H15C19.1421 22.5 22.5 25.8579 22.5 30V35H10V22.5Z" fill="#C9D1D9"/>
<path d="M10 47.5H17.5C20.2614 47.5 22.5 49.7386 22.5 52.5V60H12C10.8954 60 10 59.1046 10 58V47.5Z" fill="#C9D1D9"/>
<path d="M22.5 10H35V22.5H30C25.8579 22.5 22.5 19.1421 22.5 15V10Z" fill="#C9D1D9"/>
<path d="M22.5 35C29.4036 35 35 40.5964 35 47.5H27.5C24.7386 47.5 22.5 45.2614 22.5 42.5V35Z" fill="#C9D1D9"/>
<path d="M22.5 30C22.5 25.8579 25.8579 22.5 30 22.5H35C35 29.4036 29.4036 35 22.5 35V30Z" fill="#C9D1D9"/>
<path d="M22.5 52.5C22.5 49.7386 24.7386 47.5 27.5 47.5H35C35 54.4036 29.4036 60 22.5 60V52.5Z" fill="#C9D1D9"/>
<path d="M35 10H47.5V18.75C47.5 20.8211 45.8211 22.5 43.75 22.5H35V10Z" fill="#C9D1D9"/>
<path d="M35 22.5H43.75C45.8211 22.5 47.5 24.1789 47.5 26.25V35C40.5964 35 35 29.4036 35 22.5Z" fill="#C9D1D9"/>
<path d="M47.5 10H58C59.1046 10 60 10.8954 60 12V22.5H51.25C49.1789 22.5 47.5 20.8211 47.5 18.75V10Z" fill="#C9D1D9"/>
<path d="M47.5 26.25C47.5 24.1789 49.1789 22.5 51.25 22.5H60C60 29.4036 54.4036 35 47.5 35V26.25Z" fill="#C9D1D9"/>
<path d="M22.5 10H12C10.8954 10 10 10.8954 10 12V22.5M22.5 10V15M22.5 10H35M10 22.5H15M10 22.5V35M22.5 15C22.5 19.1421 19.1421 22.5 15 22.5M22.5 15C22.5 19.1421 25.8579 22.5 30 22.5M15 22.5C19.1421 22.5 22.5 25.8579 22.5 30M10 35H22.5M10 35V47.5M22.5 35V42.5M22.5 35V30M22.5 35C29.4036 35 35 40.5964 35 47.5M22.5 35C29.4036 35 35 29.4036 35 22.5M10 47.5H17.5M10 47.5V58C10 59.1046 10.8954 60 12 60H22.5M22.5 42.5C22.5 45.2614 20.2614 47.5 17.5 47.5M22.5 42.5C22.5 45.2614 24.7386 47.5 27.5 47.5M17.5 47.5C20.2614 47.5 22.5 49.7386 22.5 52.5M22.5 30C22.5 25.8579 25.8579 22.5 30 22.5M22.5 60V52.5M22.5 60C29.4036 60 35 54.4036 35 47.5M22.5 52.5C22.5 49.7386 24.7386 47.5 27.5 47.5M35 10V22.5M35 10H47.5M35 22.5H30M35 22.5H43.75M35 22.5C35 29.4036 40.5964 35 47.5 35M35 47.5H27.5M47.5 10V18.75M47.5 10H58C59.1046 10 60 10.8954 60 12V22.5M47.5 18.75C47.5 20.8211 45.8211 22.5 43.75 22.5M47.5 18.75C47.5 20.8211 49.1789 22.5 51.25 22.5M43.75 22.5C45.8211 22.5 47.5 24.1789 47.5 26.25M47.5 35V26.25M47.5 35C54.4036 35 60 29.4036 60 22.5M47.5 26.25C47.5 24.1789 49.1789 22.5 51.25 22.5M60 22.5H51.25" stroke="#0D1117"/>
<path d="M13.06 79.12C12.52 79.12 12.0533 79.03 11.66 78.85C11.2733 78.6633 10.9433 78.4167 10.67 78.11L11.21 77.64C11.4567 77.9 11.7267 78.1 12.02 78.24C12.3133 78.38 12.6667 78.45 13.08 78.45C13.48 78.45 13.8067 78.38 14.06 78.24C14.32 78.0933 14.45 77.8667 14.45 77.56C14.45 77.4267 14.4233 77.3167 14.37 77.23C14.3233 77.1367 14.2567 77.0633 14.17 77.01C14.0833 76.9567 13.9867 76.9167 13.88 76.89C13.7733 76.8567 13.66 76.83 13.54 76.81L12.73 76.69C12.55 76.6633 12.3533 76.6267 12.14 76.58C11.9333 76.5333 11.7433 76.46 11.57 76.36C11.3967 76.2533 11.25 76.1133 11.13 75.94C11.0167 75.7667 10.96 75.54 10.96 75.26C10.96 75 11.01 74.7767 11.11 74.59C11.2167 74.3967 11.3633 74.2367 11.55 74.11C11.7367 73.9767 11.9567 73.88 12.21 73.82C12.4633 73.7533 12.74 73.72 13.04 73.72C13.5067 73.72 13.91 73.7933 14.25 73.94C14.5967 74.0867 14.8933 74.29 15.14 74.55L14.62 75.04C14.56 74.9667 14.4833 74.8933 14.39 74.82C14.3033 74.74 14.1933 74.67 14.06 74.61C13.9333 74.5433 13.7833 74.49 13.61 74.45C13.4367 74.41 13.2367 74.39 13.01 74.39C12.6033 74.39 12.29 74.46 12.07 74.6C11.8567 74.74 11.75 74.9433 11.75 75.21C11.75 75.3433 11.7733 75.4567 11.82 75.55C11.8733 75.6367 11.9433 75.7067 12.03 75.76C12.1167 75.8133 12.2133 75.8567 12.32 75.89C12.4333 75.9167 12.5467 75.94 12.66 75.96L13.47 76.08C13.6567 76.1067 13.8533 76.1433 14.06 76.19C14.2667 76.2367 14.4567 76.3133 14.63 76.42C14.8033 76.52 14.9467 76.6567 15.06 76.83C15.18 77.0033 15.24 77.23 15.24 77.51C15.24 78.0233 15.04 78.42 14.64 78.7C14.2467 78.98 13.72 79.12 13.06 79.12ZM20.8461 79C20.5328 79 20.3094 78.92 20.1761 78.76C20.0428 78.6 19.9594 78.4 19.9261 78.16H19.8761C19.7628 78.46 19.5794 78.6967 19.3261 78.87C19.0794 79.0367 18.7461 79.12 18.3261 79.12C17.7861 79.12 17.3561 78.98 17.0361 78.7C16.7161 78.42 16.5561 78.0367 16.5561 77.55C16.5561 77.07 16.7294 76.7 17.0761 76.44C17.4294 76.18 17.9961 76.05 18.7761 76.05H19.8761V75.54C19.8761 75.16 19.7694 74.8767 19.5561 74.69C19.3428 74.4967 19.0394 74.4 18.6461 74.4C18.2994 74.4 18.0161 74.47 17.7961 74.61C17.5761 74.7433 17.3994 74.9267 17.2661 75.16L16.7261 74.76C16.7928 74.6267 16.8828 74.4967 16.9961 74.37C17.1094 74.2433 17.2494 74.1333 17.4161 74.04C17.5828 73.94 17.7728 73.8633 17.9861 73.81C18.1994 73.75 18.4361 73.72 18.6961 73.72C19.3028 73.72 19.7828 73.8733 20.1361 74.18C20.4961 74.4867 20.6761 74.9133 20.6761 75.46V78.3H21.3961V79H20.8461ZM18.4661 78.45C18.6728 78.45 18.8594 78.4267 19.0261 78.38C19.1994 78.3267 19.3494 78.26 19.4761 78.18C19.6028 78.0933 19.6994 77.9933 19.7661 77.88C19.8394 77.76 19.8761 77.6333 19.8761 77.5V76.65H18.7761C18.2961 76.65 17.9461 76.7167 17.7261 76.85C17.5061 76.9833 17.3961 77.1767 17.3961 77.43V77.64C17.3961 77.9067 17.4894 78.11 17.6761 78.25C17.8694 78.3833 18.1328 78.45 18.4661 78.45ZM24.8522 79.12C24.3122 79.12 23.8455 79.03 23.4522 78.85C23.0655 78.6633 22.7355 78.4167 22.4622 78.11L23.0022 77.64C23.2489 77.9 23.5189 78.1 23.8122 78.24C24.1055 78.38 24.4589 78.45 24.8722 78.45C25.2722 78.45 25.5989 78.38 25.8522 78.24C26.1122 78.0933 26.2422 77.8667 26.2422 77.56C26.2422 77.4267 26.2155 77.3167 26.1622 77.23C26.1155 77.1367 26.0489 77.0633 25.9622 77.01C25.8755 76.9567 25.7789 76.9167 25.6722 76.89C25.5655 76.8567 25.4522 76.83 25.3322 76.81L24.5222 76.69C24.3422 76.6633 24.1455 76.6267 23.9322 76.58C23.7255 76.5333 23.5355 76.46 23.3622 76.36C23.1889 76.2533 23.0422 76.1133 22.9222 75.94C22.8089 75.7667 22.7522 75.54 22.7522 75.26C22.7522 75 22.8022 74.7767 22.9022 74.59C23.0089 74.3967 23.1555 74.2367 23.3422 74.11C23.5289 73.9767 23.7489 73.88 24.0022 73.82C24.2555 73.7533 24.5322 73.72 24.8322 73.72C25.2989 73.72 25.7022 73.7933 26.0422 73.94C26.3889 74.0867 26.6855 74.29 26.9322 74.55L26.4122 75.04C26.3522 74.9667 26.2755 74.8933 26.1822 74.82C26.0955 74.74 25.9855 74.67 25.8522 74.61C25.7255 74.5433 25.5755 74.49 25.4022 74.45C25.2289 74.41 25.0289 74.39 24.8022 74.39C24.3955 74.39 24.0822 74.46 23.8622 74.6C23.6489 74.74 23.5422 74.9433 23.5422 75.21C23.5422 75.3433 23.5655 75.4567 23.6122 75.55C23.6655 75.6367 23.7355 75.7067 23.8222 75.76C23.9089 75.8133 24.0055 75.8567 24.1122 75.89C24.2255 75.9167 24.3389 75.94 24.4522 75.96L25.2622 76.08C25.4489 76.1067 25.6455 76.1433 25.8522 76.19C26.0589 76.2367 26.2489 76.3133 26.4222 76.42C26.5955 76.52 26.7389 76.6567 26.8522 76.83C26.9722 77.0033 27.0322 77.23 27.0322 77.51C27.0322 78.0233 26.8322 78.42 26.4322 78.7C26.0389 78.98 25.5122 79.12 24.8522 79.12ZM28.6683 71.6H29.4683V74.68H29.5083C29.5616 74.5533 29.6283 74.4333 29.7083 74.32C29.7883 74.2 29.8849 74.0967 29.9983 74.01C30.1183 73.9233 30.2583 73.8533 30.4183 73.8C30.5783 73.7467 30.7649 73.72 30.9783 73.72C31.5183 73.72 31.9516 73.8933 32.2783 74.24C32.6049 74.58 32.7683 75.0633 32.7683 75.69V79H31.9683V75.83C31.9683 75.3567 31.8649 75.0067 31.6583 74.78C31.4516 74.5467 31.1483 74.43 30.7483 74.43C30.5883 74.43 30.4316 74.45 30.2783 74.49C30.1249 74.53 29.9883 74.59 29.8683 74.67C29.7483 74.75 29.6516 74.8533 29.5783 74.98C29.5049 75.1067 29.4683 75.2533 29.4683 75.42V79H28.6683V71.6ZM38.5344 79C38.221 79 37.9977 78.92 37.8644 78.76C37.731 78.6 37.6477 78.4 37.6144 78.16H37.5644C37.451 78.46 37.2677 78.6967 37.0144 78.87C36.7677 79.0367 36.4344 79.12 36.0144 79.12C35.4744 79.12 35.0444 78.98 34.7244 78.7C34.4044 78.42 34.2444 78.0367 34.2444 77.55C34.2444 77.07 34.4177 76.7 34.7644 76.44C35.1177 76.18 35.6844 76.05 36.4644 76.05H37.5644V75.54C37.5644 75.16 37.4577 74.8767 37.2444 74.69C37.031 74.4967 36.7277 74.4 36.3344 74.4C35.9877 74.4 35.7044 74.47 35.4844 74.61C35.2644 74.7433 35.0877 74.9267 34.9544 75.16L34.4144 74.76C34.481 74.6267 34.571 74.4967 34.6844 74.37C34.7977 74.2433 34.9377 74.1333 35.1044 74.04C35.271 73.94 35.461 73.8633 35.6744 73.81C35.8877 73.75 36.1244 73.72 36.3844 73.72C36.991 73.72 37.471 73.8733 37.8244 74.18C38.1844 74.4867 38.3644 74.9133 38.3644 75.46V78.3H39.0844V79H38.5344ZM36.1544 78.45C36.361 78.45 36.5477 78.4267 36.7144 78.38C36.8877 78.3267 37.0377 78.26 37.1644 78.18C37.291 78.0933 37.3877 77.9933 37.4544 77.88C37.5277 77.76 37.5644 77.6333 37.5644 77.5V76.65H36.4644C35.9844 76.65 35.6344 76.7167 35.4144 76.85C35.1944 76.9833 35.0844 77.1767 35.0844 77.43V77.64C35.0844 77.9067 35.1777 78.11 35.3644 78.25C35.5577 78.3833 35.821 78.45 36.1544 78.45ZM13.18 89.12C12.8067 89.12 12.4733 89.0567 12.18 88.93C11.8933 88.7967 11.65 88.6133 11.45 88.38C11.25 88.1467 11.0967 87.8633 10.99 87.53C10.89 87.1967 10.84 86.8267 10.84 86.42C10.84 86.0133 10.8933 85.6433 11 85.31C11.1067 84.9767 11.26 84.6933 11.46 84.46C11.66 84.22 11.9033 84.0367 12.19 83.91C12.4767 83.7833 12.8033 83.72 13.17 83.72C13.67 83.72 14.0767 83.83 14.39 84.05C14.7033 84.27 14.9333 84.5567 15.08 84.91L14.44 85.25C14.3467 84.9833 14.19 84.7767 13.97 84.63C13.7567 84.4833 13.49 84.41 13.17 84.41C12.9367 84.41 12.7267 84.45 12.54 84.53C12.36 84.6033 12.2067 84.71 12.08 84.85C11.9533 84.99 11.8567 85.1567 11.79 85.35C11.73 85.5433 11.7 85.7533 11.7 85.98V86.86C11.7 87.0867 11.73 87.2967 11.79 87.49C11.8567 87.6833 11.9533 87.85 12.08 87.99C12.2067 88.13 12.3633 88.24 12.55 88.32C12.7367 88.3933 12.95 88.43 13.19 88.43C13.5367 88.43 13.8233 88.35 14.05 88.19C14.2767 88.03 14.4567 87.81 14.59 87.53L15.16 87.92C15.0067 88.2667 14.7667 88.5533 14.44 88.78C14.12 89.0067 13.7 89.12 13.18 89.12ZM16.8761 81.6H17.6761V84.68H17.7161C17.7694 84.5533 17.8361 84.4333 17.9161 84.32C17.9961 84.2 18.0928 84.0967 18.2061 84.01C18.3261 83.9233 18.4661 83.8533 18.6261 83.8C18.7861 83.7467 18.9728 83.72 19.1861 83.72C19.7261 83.72 20.1594 83.8933 20.4861 84.24C20.8128 84.58 20.9761 85.0633 20.9761 85.69V89H20.1761V85.83C20.1761 85.3567 20.0728 85.0067 19.8661 84.78C19.6594 84.5467 19.3561 84.43 18.9561 84.43C18.7961 84.43 18.6394 84.45 18.4861 84.49C18.3328 84.53 18.1961 84.59 18.0761 84.67C17.9561 84.75 17.8594 84.8533 17.7861 84.98C17.7128 85.1067 17.6761 85.2533 17.6761 85.42V89H16.8761V81.6ZM24.8822 89.12C24.5089 89.12 24.1722 89.0567 23.8722 88.93C23.5789 88.8033 23.3255 88.6233 23.1122 88.39C22.9055 88.15 22.7455 87.8667 22.6322 87.54C22.5189 87.2067 22.4622 86.8367 22.4622 86.43C22.4622 86.0167 22.5189 85.6433 22.6322 85.31C22.7522 84.9767 22.9155 84.6933 23.1222 84.46C23.3289 84.22 23.5755 84.0367 23.8622 83.91C24.1555 83.7833 24.4789 83.72 24.8322 83.72C25.1789 83.72 25.4922 83.7833 25.7722 83.91C26.0589 84.0367 26.3022 84.2133 26.5022 84.44C26.7022 84.66 26.8555 84.9233 26.9622 85.23C27.0689 85.5367 27.1222 85.8733 27.1222 86.24V86.62H23.3022V86.86C23.3022 87.0867 23.3389 87.2967 23.4122 87.49C23.4855 87.6833 23.5889 87.85 23.7222 87.99C23.8622 88.13 24.0289 88.24 24.2222 88.32C24.4222 88.3933 24.6422 88.43 24.8822 88.43C25.2289 88.43 25.5289 88.35 25.7822 88.19C26.0355 88.03 26.2289 87.81 26.3622 87.53L26.9522 87.93C26.7989 88.2767 26.5422 88.5633 26.1822 88.79C25.8289 89.01 25.3955 89.12 24.8822 89.12ZM24.8322 84.38C24.6122 84.38 24.4089 84.42 24.2222 84.5C24.0355 84.58 23.8722 84.69 23.7322 84.83C23.5989 84.97 23.4922 85.1367 23.4122 85.33C23.3389 85.5167 23.3022 85.7233 23.3022 85.95V86.02H26.2622V85.91C26.2622 85.6833 26.2255 85.4767 26.1522 85.29C26.0855 85.1033 25.9889 84.9433 25.8622 84.81C25.7422 84.67 25.5922 84.5633 25.4122 84.49C25.2389 84.4167 25.0455 84.38 24.8322 84.38ZM28.6383 83.84H29.4383V84.68H29.4783C29.8116 84.04 30.3416 83.72 31.0683 83.72C31.7016 83.72 32.1949 83.9567 32.5483 84.43C32.9083 84.9033 33.0883 85.5667 33.0883 86.42C33.0883 87.2733 32.9083 87.9367 32.5483 88.41C32.1949 88.8833 31.7016 89.12 31.0683 89.12C30.3416 89.12 29.8116 88.8 29.4783 88.16H29.4383V91H28.6383V83.84ZM30.7583 88.41C31.2249 88.41 31.5849 88.27 31.8383 87.99C32.0983 87.7033 32.2283 87.3267 32.2283 86.86V85.98C32.2283 85.5133 32.0983 85.14 31.8383 84.86C31.5849 84.5733 31.2249 84.43 30.7583 84.43C30.5783 84.43 30.4083 84.4533 30.2483 84.5C30.0883 84.5467 29.9483 84.6167 29.8283 84.71C29.7083 84.7967 29.6116 84.9067 29.5383 85.04C29.4716 85.1667 29.4383 85.3167 29.4383 85.49V87.35C29.4383 87.5233 29.4716 87.6767 29.5383 87.81C29.6116 87.9367 29.7083 88.0467 29.8283 88.14C29.9483 88.2267 30.0883 88.2933 30.2483 88.34C30.4083 88.3867 30.5783 88.41 30.7583 88.41ZM37.8044 88.16H37.7644C37.711 88.2867 37.6444 88.41 37.5644 88.53C37.4844 88.6433 37.3844 88.7433 37.2644 88.83C37.151 88.9167 37.0144 88.9867 36.8544 89.04C36.6944 89.0933 36.5077 89.12 36.2944 89.12C35.7544 89.12 35.321 88.95 34.9944 88.61C34.6677 88.2633 34.5044 87.7767 34.5044 87.15V83.84H35.3044V87.01C35.3044 87.4833 35.4077 87.8367 35.6144 88.07C35.821 88.2967 36.1244 88.41 36.5244 88.41C36.6844 88.41 36.841 88.39 36.9944 88.35C37.1477 88.31 37.2844 88.25 37.4044 88.17C37.5244 88.09 37.621 87.99 37.6944 87.87C37.7677 87.7433 37.8044 87.5933 37.8044 87.42V83.84H38.6044V89H37.8044V88.16ZM40.4605 81.6H41.2605V84.68H41.3005C41.3538 84.5533 41.4205 84.4333 41.5005 84.32C41.5805 84.2 41.6771 84.0967 41.7905 84.01C41.9105 83.9233 42.0505 83.8533 42.2105 83.8C42.3705 83.7467 42.5571 83.72 42.7705 83.72C43.3105 83.72 43.7438 83.8933 44.0705 84.24C44.3971 84.58 44.5605 85.0633 44.5605 85.69V89H43.7605V85.83C43.7605 85.3567 43.6571 85.0067 43.4505 84.78C43.2438 84.5467 42.9405 84.43 42.5405 84.43C42.3805 84.43 42.2238 84.45 42.0705 84.49C41.9171 84.53 41.7805 84.59 41.6605 84.67C41.5405 84.75 41.4438 84.8533 41.3705 84.98C41.2971 85.1067 41.2605 85.2533 41.2605 85.42V89H40.4605V81.6ZM50.3266 89C50.0132 89 49.7899 88.92 49.6566 88.76C49.5232 88.6 49.4399 88.4 49.4066 88.16H49.3566C49.2432 88.46 49.0599 88.6967 48.8066 88.87C48.5599 89.0367 48.2266 89.12 47.8066 89.12C47.2666 89.12 46.8366 88.98 46.5166 88.7C46.1966 88.42 46.0366 88.0367 46.0366 87.55C46.0366 87.07 46.2099 86.7 46.5566 86.44C46.9099 86.18 47.4766 86.05 48.2566 86.05H49.3566V85.54C49.3566 85.16 49.2499 84.8767 49.0366 84.69C48.8232 84.4967 48.5199 84.4 48.1266 84.4C47.7799 84.4 47.4966 84.47 47.2766 84.61C47.0566 84.7433 46.8799 84.9267 46.7466 85.16L46.2066 84.76C46.2732 84.6267 46.3632 84.4967 46.4766 84.37C46.5899 84.2433 46.7299 84.1333 46.8966 84.04C47.0632 83.94 47.2532 83.8633 47.4666 83.81C47.6799 83.75 47.9166 83.72 48.1766 83.72C48.7832 83.72 49.2632 83.8733 49.6166 84.18C49.9766 84.4867 50.1566 84.9133 50.1566 85.46V88.3H50.8766V89H50.3266ZM47.9466 88.45C48.1532 88.45 48.3399 88.4267 48.5066 88.38C48.6799 88.3267 48.8299 88.26 48.9566 88.18C49.0832 88.0933 49.1799 87.9933 49.2466 87.88C49.3199 87.76 49.3566 87.6333 49.3566 87.5V86.65H48.2566C47.7766 86.65 47.4266 86.7167 47.2066 86.85C46.9866 86.9833 46.8766 87.1767 46.8766 87.43V87.64C46.8766 87.9067 46.9699 88.11 47.1566 88.25C47.3499 88.3833 47.6132 88.45 47.9466 88.45Z" fill="#C9D1D9"/>
<rect x="0.5" y="0.5" width="69" height="99" rx="9.5" stroke="#1B222C"/>
<rect x="80.5" y="0.5" width="135" height="99" rx="9.5" fill="#0D1117"/>
<path d="M97.1293 26.7692C96.1018 26.7692 95.1903 26.6283 94.3949 26.3466C93.6027 26.0682 92.9349 25.6572 92.3913 25.1136C91.8478 24.5734 91.4351 23.9105 91.1534 23.125C90.8717 22.3395 90.7308 21.4429 90.7308 20.4354C90.7308 19.4543 90.8733 18.5727 91.1584 17.7905C91.4434 17.0083 91.8577 16.3421 92.4013 15.7919C92.9482 15.2384 93.6127 14.8158 94.3949 14.5241C95.1771 14.2325 96.0653 14.0866 97.0597 14.0866C98.0109 14.0866 98.8494 14.2358 99.5753 14.5341C100.301 14.8324 100.911 15.2417 101.405 15.7621C101.902 16.2824 102.277 16.879 102.528 17.5518C102.78 18.2247 102.906 18.9356 102.906 19.6847C102.906 20.2083 102.873 20.7204 102.807 21.2209C102.741 21.718 102.618 22.1688 102.439 22.5732C102.263 22.9742 102.008 23.2957 101.673 23.5376C101.342 23.7763 100.911 23.9006 100.381 23.9105C100.099 23.9205 99.8255 23.8873 99.5604 23.8111C99.2952 23.7348 99.0698 23.6122 98.8842 23.4432C98.6986 23.2708 98.5859 23.0521 98.5462 22.7869H98.4865C98.407 22.9825 98.2744 23.1648 98.0888 23.3338C97.9032 23.4995 97.6662 23.6321 97.3778 23.7315C97.0928 23.8277 96.7614 23.8674 96.3835 23.8509C95.9659 23.8343 95.5897 23.7398 95.255 23.5675C94.9202 23.3951 94.6335 23.1565 94.3949 22.8516C94.1596 22.5466 93.9789 22.1854 93.853 21.7678C93.727 21.3501 93.6641 20.8861 93.6641 20.3757C93.6641 19.8852 93.7353 19.446 93.8778 19.0582C94.0204 18.6671 94.2143 18.3307 94.4595 18.049C94.7081 17.764 94.9931 17.5386 95.3146 17.3729C95.6361 17.2071 95.9759 17.1027 96.3338 17.0597C96.6818 17.0199 97.0017 17.0298 97.2933 17.0895C97.585 17.1491 97.8269 17.2403 98.0192 17.3629C98.2147 17.4856 98.3374 17.6198 98.3871 17.7656H98.4517V17.2088H99.6747V21.8224C99.6747 22.0843 99.7427 22.3063 99.8786 22.4886C100.018 22.6709 100.215 22.7621 100.47 22.7621C100.772 22.7621 101.007 22.651 101.176 22.429C101.348 22.2069 101.469 21.8655 101.539 21.4048C101.612 20.9441 101.648 20.3542 101.648 19.6349C101.648 19.1312 101.58 18.6572 101.445 18.2131C101.312 17.7656 101.115 17.3613 100.853 17C100.594 16.6354 100.276 16.3222 99.8984 16.0604C99.5206 15.7985 99.0897 15.5964 98.6058 15.4538C98.1252 15.3113 97.5933 15.2401 97.0099 15.2401C96.2178 15.2401 95.5135 15.3627 94.897 15.608C94.2805 15.8499 93.7602 16.1996 93.3359 16.657C92.915 17.1143 92.5952 17.6629 92.3764 18.3026C92.161 18.9389 92.0533 19.6532 92.0533 20.4453C92.0533 21.2706 92.1643 22.0031 92.3864 22.6428C92.6084 23.2791 92.9366 23.8161 93.3707 24.2536C93.8049 24.6911 94.3419 25.0225 94.9815 25.2479C95.6212 25.4766 96.3587 25.5909 97.1939 25.5909C97.5651 25.5909 97.9297 25.5578 98.2876 25.4915C98.6456 25.4285 98.9638 25.3556 99.2422 25.2727C99.5239 25.1932 99.7344 25.1286 99.8736 25.0788L100.222 26.1676C100.016 26.2637 99.7427 26.3582 99.4013 26.451C99.0632 26.5438 98.6953 26.62 98.2976 26.6797C97.9032 26.7393 97.5137 26.7692 97.1293 26.7692ZM96.6719 22.6328C97.1027 22.6328 97.4491 22.5466 97.7109 22.3743C97.9761 22.2019 98.1667 21.9451 98.2827 21.6037C98.402 21.259 98.4616 20.8281 98.4616 20.3111C98.4583 19.8073 98.3937 19.4062 98.2678 19.108C98.1451 18.8063 97.9529 18.5909 97.6911 18.4616C97.4325 18.3291 97.0994 18.2628 96.6918 18.2628C96.3172 18.2628 95.9974 18.3539 95.7322 18.5362C95.4704 18.7185 95.2699 18.9654 95.1307 19.277C94.9948 19.5885 94.9252 19.9349 94.9219 20.3161C94.9252 20.7171 94.9815 21.0949 95.0909 21.4496C95.2036 21.8009 95.3859 22.0859 95.6378 22.3047C95.893 22.5234 96.2377 22.6328 96.6719 22.6328ZM107.625 24.1541C106.886 24.1541 106.249 23.9867 105.716 23.652C105.185 23.3139 104.778 22.8482 104.493 22.255C104.208 21.6617 104.065 20.9822 104.065 20.2166C104.065 19.4411 104.211 18.7566 104.503 18.1634C104.794 17.5668 105.205 17.1011 105.736 16.7663C106.266 16.4316 106.891 16.2642 107.61 16.2642C108.19 16.2642 108.707 16.3719 109.161 16.5874C109.615 16.7995 109.981 17.0978 110.26 17.4822C110.541 17.8667 110.709 18.3158 110.762 18.8295H109.315C109.236 18.4716 109.053 18.1634 108.768 17.9048C108.486 17.6463 108.109 17.517 107.635 17.517C107.22 17.517 106.857 17.6264 106.546 17.8452C106.238 18.0606 105.997 18.3688 105.825 18.7699C105.653 19.1676 105.566 19.6383 105.566 20.1818C105.566 20.7386 105.651 21.2192 105.82 21.6236C105.989 22.0279 106.228 22.3411 106.536 22.5632C106.848 22.7853 107.214 22.8963 107.635 22.8963C107.916 22.8963 108.172 22.8449 108.4 22.7422C108.632 22.6361 108.826 22.4853 108.982 22.2898C109.141 22.0942 109.252 21.8589 109.315 21.5838H110.762C110.709 22.0777 110.548 22.5185 110.28 22.9062C110.011 23.294 109.651 23.599 109.201 23.821C108.753 24.0431 108.228 24.1541 107.625 24.1541ZM113.698 19.4659V24H112.211V13.8182H113.678V17.6065H113.773C113.952 17.1955 114.225 16.8691 114.593 16.6271C114.961 16.3852 115.441 16.2642 116.035 16.2642C116.558 16.2642 117.016 16.3719 117.407 16.5874C117.801 16.8028 118.106 17.1243 118.322 17.5518C118.54 17.9761 118.65 18.5064 118.65 19.1428V24H117.163V19.3217C117.163 18.7616 117.019 18.3274 116.731 18.0192C116.442 17.7076 116.041 17.5518 115.528 17.5518C115.176 17.5518 114.861 17.6264 114.583 17.7756C114.308 17.9247 114.091 18.1435 113.932 18.4318C113.776 18.7169 113.698 19.0616 113.698 19.4659ZM123.785 24.1541C123.032 24.1541 122.384 23.9934 121.841 23.6719C121.3 23.3471 120.883 22.8913 120.588 22.3047C120.296 21.7147 120.15 21.0237 120.15 20.2315C120.15 19.4493 120.296 18.7599 120.588 18.1634C120.883 17.5668 121.294 17.1011 121.821 16.7663C122.351 16.4316 122.971 16.2642 123.68 16.2642C124.111 16.2642 124.529 16.3355 124.933 16.478C125.337 16.6205 125.7 16.8442 126.022 17.1491C126.343 17.4541 126.597 17.8501 126.782 18.3374C126.968 18.8213 127.061 19.4096 127.061 20.1023V20.6293H120.991V19.5156H125.604C125.604 19.1245 125.525 18.7782 125.366 18.4766C125.206 18.1716 124.983 17.9313 124.694 17.7557C124.409 17.58 124.075 17.4922 123.69 17.4922C123.272 17.4922 122.908 17.5949 122.596 17.8004C122.288 18.0026 122.049 18.2678 121.88 18.5959C121.715 18.9207 121.632 19.2737 121.632 19.6548V20.5249C121.632 21.0353 121.721 21.4695 121.9 21.8274C122.083 22.1854 122.336 22.4588 122.661 22.6477C122.986 22.8333 123.365 22.9261 123.799 22.9261C124.081 22.9261 124.338 22.8864 124.57 22.8068C124.802 22.724 125.003 22.6013 125.172 22.4389C125.341 22.2765 125.47 22.076 125.559 21.8374L126.966 22.0909C126.854 22.5052 126.651 22.8681 126.36 23.1797C126.071 23.4879 125.709 23.7282 125.271 23.9006C124.837 24.0696 124.341 24.1541 123.785 24.1541ZM128.57 26.8636V16.3636H130.022V17.6016H130.146C130.232 17.4425 130.357 17.2585 130.519 17.0497C130.681 16.8409 130.907 16.6586 131.195 16.5028C131.484 16.3438 131.865 16.2642 132.339 16.2642C132.955 16.2642 133.505 16.42 133.989 16.7315C134.473 17.0431 134.853 17.4922 135.128 18.0788C135.406 18.6655 135.545 19.3714 135.545 20.1967C135.545 21.022 135.408 21.7296 135.133 22.3196C134.858 22.9062 134.48 23.3587 133.999 23.6768C133.519 23.9917 132.97 24.1491 132.354 24.1491C131.89 24.1491 131.51 24.0713 131.215 23.9155C130.923 23.7597 130.695 23.5774 130.529 23.3686C130.363 23.1598 130.236 22.9742 130.146 22.8118H130.057V26.8636H128.57ZM130.027 20.1818C130.027 20.7187 130.105 21.1894 130.26 21.5938C130.416 21.9981 130.642 22.3146 130.937 22.5433C131.232 22.7687 131.593 22.8814 132.02 22.8814C132.465 22.8814 132.836 22.7637 133.134 22.5284C133.432 22.2898 133.658 21.9666 133.81 21.5589C133.966 21.1513 134.044 20.6922 134.044 20.1818C134.044 19.678 133.968 19.2256 133.815 18.8246C133.666 18.4235 133.441 18.107 133.139 17.875C132.841 17.643 132.468 17.527 132.02 17.527C131.59 17.527 131.225 17.638 130.927 17.8601C130.632 18.0821 130.408 18.392 130.256 18.7898C130.103 19.1875 130.027 19.6515 130.027 20.1818ZM141.908 20.8331V16.3636H143.4V24H141.938V22.6776H141.858C141.683 23.0852 141.401 23.425 141.013 23.6967C140.629 23.9652 140.15 24.0994 139.576 24.0994C139.086 24.0994 138.652 23.9917 138.274 23.7763C137.899 23.5575 137.604 23.2344 137.389 22.8068C137.177 22.3793 137.071 21.8506 137.071 21.2209V16.3636H138.557V21.0419C138.557 21.5623 138.701 21.9766 138.99 22.2848C139.278 22.593 139.653 22.7472 140.113 22.7472C140.392 22.7472 140.669 22.6776 140.944 22.5384C141.222 22.3991 141.452 22.1887 141.635 21.907C141.82 21.6252 141.911 21.2673 141.908 20.8331ZM146.743 19.4659V24H145.257V13.8182H146.724V17.6065H146.818C146.997 17.1955 147.27 16.8691 147.638 16.6271C148.006 16.3852 148.487 16.2642 149.08 16.2642C149.604 16.2642 150.061 16.3719 150.452 16.5874C150.847 16.8028 151.152 17.1243 151.367 17.5518C151.586 17.9761 151.695 18.5064 151.695 19.1428V24H150.209V19.3217C150.209 18.7616 150.064 18.3274 149.776 18.0192C149.488 17.7076 149.087 17.5518 148.573 17.5518C148.222 17.5518 147.907 17.6264 147.628 17.7756C147.353 17.9247 147.136 18.1435 146.977 18.4318C146.821 18.7169 146.743 19.0616 146.743 19.4659ZM155.761 24.169C155.277 24.169 154.84 24.0795 154.449 23.9006C154.058 23.7183 153.748 23.4548 153.519 23.1101C153.294 22.7654 153.181 22.3428 153.181 21.8423C153.181 21.4115 153.264 21.0568 153.429 20.7784C153.595 20.5 153.819 20.2796 154.101 20.1172C154.382 19.9548 154.697 19.8321 155.045 19.7493C155.393 19.6664 155.748 19.6035 156.109 19.5604C156.567 19.5073 156.938 19.4643 157.223 19.4311C157.508 19.3946 157.715 19.3366 157.844 19.2571C157.973 19.1776 158.038 19.0483 158.038 18.8693V18.8345C158.038 18.4003 157.915 18.0639 157.67 17.8253C157.428 17.5866 157.067 17.4673 156.586 17.4673C156.086 17.4673 155.692 17.5784 155.403 17.8004C155.118 18.0192 154.921 18.2628 154.812 18.5312L153.415 18.2131C153.58 17.7491 153.822 17.3745 154.14 17.0895C154.462 16.8011 154.831 16.5923 155.249 16.4631C155.667 16.3305 156.106 16.2642 156.567 16.2642C156.871 16.2642 157.195 16.3007 157.536 16.3736C157.881 16.4432 158.202 16.5724 158.5 16.7614C158.802 16.9503 159.049 17.2204 159.241 17.5717C159.433 17.9197 159.53 18.3722 159.53 18.929V24H158.078V22.956H158.018C157.922 23.1482 157.778 23.3371 157.586 23.5227C157.393 23.7083 157.147 23.8625 156.845 23.9851C156.543 24.1077 156.182 24.169 155.761 24.169ZM156.084 22.9759C156.495 22.9759 156.847 22.8946 157.138 22.7322C157.433 22.5698 157.657 22.3577 157.809 22.0959C157.965 21.8307 158.043 21.5473 158.043 21.2457V20.2614C157.99 20.3144 157.887 20.3641 157.735 20.4105C157.586 20.4536 157.415 20.4917 157.223 20.5249C157.031 20.5547 156.843 20.5829 156.661 20.6094C156.479 20.6326 156.326 20.6525 156.204 20.669C155.915 20.7055 155.652 20.7668 155.413 20.853C155.178 20.9392 154.989 21.0634 154.846 21.2259C154.707 21.3849 154.638 21.5971 154.638 21.8622C154.638 22.2301 154.773 22.5085 155.045 22.6974C155.317 22.883 155.663 22.9759 156.084 22.9759ZM167.092 18.228L165.745 18.4666C165.688 18.2943 165.599 18.1302 165.476 17.9744C165.357 17.8187 165.194 17.6911 164.989 17.5916C164.783 17.4922 164.526 17.4425 164.218 17.4425C163.797 17.4425 163.446 17.5369 163.164 17.7259C162.883 17.9115 162.742 18.1518 162.742 18.4467C162.742 18.7019 162.836 18.9074 163.025 19.0632C163.214 19.219 163.519 19.3466 163.94 19.446L165.153 19.7244C165.856 19.8868 166.379 20.1371 166.724 20.4751C167.069 20.8132 167.241 21.2524 167.241 21.7926C167.241 22.25 167.108 22.6577 166.843 23.0156C166.581 23.3703 166.215 23.6487 165.745 23.8509C165.277 24.053 164.735 24.1541 164.119 24.1541C163.264 24.1541 162.566 23.9718 162.026 23.6072C161.486 23.2393 161.154 22.7173 161.031 22.0412L162.468 21.8224C162.558 22.197 162.742 22.4804 163.02 22.6726C163.298 22.8615 163.661 22.956 164.109 22.956C164.596 22.956 164.986 22.8549 165.277 22.6527C165.569 22.4472 165.715 22.197 165.715 21.902C165.715 21.6634 165.625 21.4628 165.446 21.3004C165.271 21.138 165 21.0154 164.636 20.9325L163.343 20.6491C162.631 20.4867 162.104 20.2282 161.762 19.8736C161.424 19.5189 161.255 19.0698 161.255 18.5263C161.255 18.0755 161.381 17.6811 161.633 17.343C161.885 17.005 162.233 16.7415 162.677 16.5526C163.121 16.3603 163.63 16.2642 164.203 16.2642C165.029 16.2642 165.678 16.4432 166.152 16.8011C166.626 17.1558 166.939 17.6314 167.092 18.228ZM170.958 24.169C170.474 24.169 170.036 24.0795 169.645 23.9006C169.254 23.7183 168.944 23.4548 168.715 23.1101C168.49 22.7654 168.377 22.3428 168.377 21.8423C168.377 21.4115 168.46 21.0568 168.626 20.7784C168.792 20.5 169.015 20.2796 169.297 20.1172C169.579 19.9548 169.894 19.8321 170.242 19.7493C170.59 19.6664 170.944 19.6035 171.306 19.5604C171.763 19.5073 172.134 19.4643 172.419 19.4311C172.704 19.3946 172.912 19.3366 173.041 19.2571C173.17 19.1776 173.235 19.0483 173.235 18.8693V18.8345C173.235 18.4003 173.112 18.0639 172.867 17.8253C172.625 17.5866 172.264 17.4673 171.783 17.4673C171.282 17.4673 170.888 17.5784 170.6 17.8004C170.315 18.0192 170.117 18.2628 170.008 18.5312L168.611 18.2131C168.777 17.7491 169.019 17.3745 169.337 17.0895C169.658 16.8011 170.028 16.5923 170.446 16.4631C170.863 16.3305 171.302 16.2642 171.763 16.2642C172.068 16.2642 172.391 16.3007 172.733 16.3736C173.077 16.4432 173.399 16.5724 173.697 16.7614C173.999 16.9503 174.246 17.2204 174.438 17.5717C174.63 17.9197 174.726 18.3722 174.726 18.929V24H173.274V22.956H173.215C173.119 23.1482 172.974 23.3371 172.782 23.5227C172.59 23.7083 172.343 23.8625 172.041 23.9851C171.74 24.1077 171.379 24.169 170.958 24.169ZM171.281 22.9759C171.692 22.9759 172.043 22.8946 172.335 22.7322C172.63 22.5698 172.854 22.3577 173.006 22.0959C173.162 21.8307 173.24 21.5473 173.24 21.2457V20.2614C173.187 20.3144 173.084 20.3641 172.931 20.4105C172.782 20.4536 172.612 20.4917 172.419 20.5249C172.227 20.5547 172.04 20.5829 171.858 20.6094C171.675 20.6326 171.523 20.6525 171.4 20.669C171.112 20.7055 170.848 20.7668 170.61 20.853C170.374 20.9392 170.185 21.0634 170.043 21.2259C169.904 21.3849 169.834 21.5971 169.834 21.8622C169.834 22.2301 169.97 22.5085 170.242 22.6974C170.514 22.883 170.86 22.9759 171.281 22.9759ZM182.288 18.228L180.941 18.4666C180.885 18.2943 180.795 18.1302 180.673 17.9744C180.553 17.8187 180.391 17.6911 180.185 17.5916C179.98 17.4922 179.723 17.4425 179.415 17.4425C178.994 17.4425 178.643 17.5369 178.361 17.7259C178.079 17.9115 177.938 18.1518 177.938 18.4467C177.938 18.7019 178.033 18.9074 178.222 19.0632C178.411 19.219 178.715 19.3466 179.136 19.446L180.349 19.7244C181.052 19.8868 181.576 20.1371 181.92 20.4751C182.265 20.8132 182.438 21.2524 182.438 21.7926C182.438 22.25 182.305 22.6577 182.04 23.0156C181.778 23.3703 181.412 23.6487 180.941 23.8509C180.474 24.053 179.932 24.1541 179.315 24.1541C178.46 24.1541 177.763 23.9718 177.222 23.6072C176.682 23.2393 176.351 22.7173 176.228 22.0412L177.665 21.8224C177.754 22.197 177.938 22.4804 178.217 22.6726C178.495 22.8615 178.858 22.956 179.305 22.956C179.793 22.956 180.182 22.8549 180.474 22.6527C180.765 22.4472 180.911 22.197 180.911 21.902C180.911 21.6634 180.822 21.4628 180.643 21.3004C180.467 21.138 180.197 21.0154 179.832 20.9325L178.54 20.6491C177.827 20.4867 177.3 20.2282 176.959 19.8736C176.621 19.5189 176.452 19.0698 176.452 18.5263C176.452 18.0755 176.578 17.6811 176.83 17.343C177.081 17.005 177.429 16.7415 177.874 16.5526C178.318 16.3603 178.827 16.2642 179.4 16.2642C180.225 16.2642 180.875 16.4432 181.349 16.8011C181.823 17.1558 182.136 17.6314 182.288 18.228ZM185.418 19.4659V24H183.932V13.8182H185.399V17.6065H185.493C185.672 17.1955 185.945 16.8691 186.313 16.6271C186.681 16.3852 187.162 16.2642 187.755 16.2642C188.279 16.2642 188.736 16.3719 189.127 16.5874C189.522 16.8028 189.827 17.1243 190.042 17.5518C190.261 17.9761 190.37 18.5064 190.37 19.1428V24H188.884V19.3217C188.884 18.7616 188.739 18.3274 188.451 18.0192C188.163 17.7076 187.762 17.5518 187.248 17.5518C186.897 17.5518 186.582 17.6264 186.303 17.7756C186.028 17.9247 185.811 18.1435 185.652 18.4318C185.496 18.7169 185.418 19.0616 185.418 19.4659ZM194.436 24.169C193.952 24.169 193.515 24.0795 193.124 23.9006C192.733 23.7183 192.423 23.4548 192.194 23.1101C191.969 22.7654 191.856 22.3428 191.856 21.8423C191.856 21.4115 191.939 21.0568 192.104 20.7784C192.27 20.5 192.494 20.2796 192.776 20.1172C193.057 19.9548 193.372 19.8321 193.72 19.7493C194.068 19.6664 194.423 19.6035 194.784 19.5604C195.242 19.5073 195.613 19.4643 195.898 19.4311C196.183 19.3946 196.39 19.3366 196.519 19.2571C196.648 19.1776 196.713 19.0483 196.713 18.8693V18.8345C196.713 18.4003 196.59 18.0639 196.345 17.8253C196.103 17.5866 195.742 17.4673 195.261 17.4673C194.761 17.4673 194.367 17.5784 194.078 17.8004C193.793 18.0192 193.596 18.2628 193.487 18.5312L192.09 18.2131C192.255 17.7491 192.497 17.3745 192.815 17.0895C193.137 16.8011 193.506 16.5923 193.924 16.4631C194.342 16.3305 194.781 16.2642 195.242 16.2642C195.546 16.2642 195.87 16.3007 196.211 16.3736C196.556 16.4432 196.877 16.5724 197.175 16.7614C197.477 16.9503 197.724 17.2204 197.916 17.5717C198.108 17.9197 198.205 18.3722 198.205 18.929V24H196.753V22.956H196.693C196.597 23.1482 196.453 23.3371 196.261 23.5227C196.068 23.7083 195.822 23.8625 195.52 23.9851C195.218 24.1077 194.857 24.169 194.436 24.169ZM194.759 22.9759C195.17 22.9759 195.522 22.8946 195.813 22.7322C196.108 22.5698 196.332 22.3577 196.484 22.0959C196.64 21.8307 196.718 21.5473 196.718 21.2457V20.2614C196.665 20.3144 196.562 20.3641 196.41 20.4105C196.261 20.4536 196.09 20.4917 195.898 20.5249C195.706 20.5547 195.518 20.5829 195.336 20.6094C195.154 20.6326 195.001 20.6525 194.879 20.669C194.59 20.7055 194.327 20.7668 194.088 20.853C193.853 20.9392 193.664 21.0634 193.521 21.2259C193.382 21.3849 193.313 21.5971 193.313 21.8622C193.313 22.2301 193.448 22.5085 193.72 22.6974C193.992 22.883 194.338 22.9759 194.759 22.9759ZM203.922 13.3409L200.641 25.5312H199.314L202.595 13.3409H203.922ZM97.532 33.3636L94.7628 41H93.1719L90.3977 33.3636H91.9936L93.9276 39.2401H94.0071L95.9361 33.3636H97.532ZM103.288 36.0533V37.3409H98.7741V36.0533H103.288ZM106.616 30.8182V41H105.129V30.8182H106.616ZM110.698 41.169C110.214 41.169 109.777 41.0795 109.386 40.9006C108.994 40.7183 108.685 40.4548 108.456 40.1101C108.231 39.7654 108.118 39.3428 108.118 38.8423C108.118 38.4115 108.201 38.0568 108.366 37.7784C108.532 37.5 108.756 37.2796 109.038 37.1172C109.319 36.9548 109.634 36.8321 109.982 36.7493C110.33 36.6664 110.685 36.6035 111.046 36.5604C111.503 36.5073 111.875 36.4643 112.16 36.4311C112.445 36.3946 112.652 36.3366 112.781 36.2571C112.91 36.1776 112.975 36.0483 112.975 35.8693V35.8345C112.975 35.4003 112.852 35.0639 112.607 34.8253C112.365 34.5866 112.004 34.4673 111.523 34.4673C111.023 34.4673 110.628 34.5784 110.34 34.8004C110.055 35.0192 109.858 35.2628 109.749 35.5312L108.351 35.2131C108.517 34.7491 108.759 34.3745 109.077 34.0895C109.399 33.8011 109.768 33.5923 110.186 33.4631C110.604 33.3305 111.043 33.2642 111.503 33.2642C111.808 33.2642 112.132 33.3007 112.473 33.3736C112.818 33.4432 113.139 33.5724 113.437 33.7614C113.739 33.9503 113.986 34.2204 114.178 34.5717C114.37 34.9197 114.467 35.3722 114.467 35.929V41H113.015V39.956H112.955C112.859 40.1482 112.715 40.3371 112.523 40.5227C112.33 40.7083 112.083 40.8625 111.782 40.9851C111.48 41.1077 111.119 41.169 110.698 41.169ZM111.021 39.9759C111.432 39.9759 111.784 39.8946 112.075 39.7322C112.37 39.5698 112.594 39.3577 112.746 39.0959C112.902 38.8307 112.98 38.5473 112.98 38.2457V37.2614C112.927 37.3144 112.824 37.3641 112.672 37.4105C112.523 37.4536 112.352 37.4917 112.16 37.5249C111.967 37.5547 111.78 37.5829 111.598 37.6094C111.416 37.6326 111.263 37.6525 111.141 37.669C110.852 37.7055 110.589 37.7668 110.35 37.853C110.115 37.9392 109.926 38.0634 109.783 38.2259C109.644 38.3849 109.574 38.5971 109.574 38.8622C109.574 39.2301 109.71 39.5085 109.982 39.6974C110.254 39.883 110.6 39.9759 111.021 39.9759ZM117.793 36.4659V41H116.306V33.3636H117.733V34.6065H117.828C118.003 34.2022 118.279 33.8774 118.653 33.6321C119.031 33.3868 119.507 33.2642 120.08 33.2642C120.6 33.2642 121.056 33.3736 121.447 33.5923C121.838 33.8078 122.141 34.1293 122.357 34.5568C122.572 34.9844 122.68 35.513 122.68 36.1428V41H121.194V36.3217C121.194 35.7682 121.049 35.3357 120.761 35.0241C120.473 34.7093 120.077 34.5518 119.573 34.5518C119.228 34.5518 118.922 34.6264 118.653 34.7756C118.388 34.9247 118.177 35.1435 118.022 35.4318C117.869 35.7169 117.793 36.0616 117.793 36.4659ZM127.735 44.0227C127.129 44.0227 126.607 43.9432 126.169 43.7841C125.735 43.625 125.38 43.4145 125.105 43.1527C124.83 42.8909 124.625 42.6042 124.489 42.2926L125.767 41.7656C125.856 41.9115 125.975 42.0656 126.125 42.228C126.277 42.3937 126.483 42.5346 126.741 42.6506C127.003 42.7666 127.339 42.8246 127.75 42.8246C128.314 42.8246 128.779 42.687 129.147 42.4119C129.515 42.1402 129.699 41.706 129.699 41.1094V39.608H129.605C129.515 39.7704 129.386 39.951 129.217 40.1499C129.051 40.3487 128.822 40.5211 128.531 40.6669C128.239 40.8127 127.86 40.8857 127.392 40.8857C126.789 40.8857 126.246 40.7448 125.762 40.4631C125.281 40.178 124.9 39.7588 124.618 39.2053C124.34 38.6484 124.201 37.964 124.201 37.152C124.201 36.34 124.338 35.6439 124.613 35.0639C124.892 34.4839 125.273 34.0398 125.757 33.7315C126.241 33.42 126.789 33.2642 127.402 33.2642C127.876 33.2642 128.259 33.3438 128.551 33.5028C128.842 33.6586 129.069 33.8409 129.232 34.0497C129.398 34.2585 129.525 34.4425 129.615 34.6016H129.724V33.3636H131.181V41.169C131.181 41.8253 131.028 42.3639 130.723 42.7848C130.418 43.2057 130.006 43.5173 129.485 43.7195C128.968 43.9216 128.385 44.0227 127.735 44.0227ZM127.72 39.6527C128.148 39.6527 128.509 39.5533 128.804 39.3544C129.103 39.1522 129.328 38.8639 129.48 38.4893C129.636 38.1115 129.714 37.6591 129.714 37.1321C129.714 36.6184 129.638 36.166 129.485 35.7749C129.333 35.3838 129.109 35.0788 128.814 34.8601C128.519 34.638 128.155 34.527 127.72 34.527C127.273 34.527 126.9 34.643 126.602 34.875C126.304 35.1037 126.078 35.4152 125.926 35.8097C125.777 36.2041 125.702 36.6449 125.702 37.1321C125.702 37.6326 125.778 38.0717 125.931 38.4496C126.083 38.8274 126.309 39.1224 126.607 39.3345C126.908 39.5466 127.28 39.6527 127.72 39.6527Z" fill="#C9D1D9"/>
<rect x="90.5" y="70.5" width="60" height="19" rx="3.5" fill="url(#paint0_radial_18_63)"/>
<path d="M101.227 78.5455L99.2102 84H98.358L96.3409 78.5455H97.25L98.7557 82.892H98.8125L100.318 78.5455H101.227ZM105.771 81.7699V78.5455H106.609V84H105.771V83.0767H105.714C105.586 83.3537 105.387 83.5893 105.118 83.7834C104.848 83.9751 104.507 84.071 104.095 84.071C103.754 84.071 103.451 83.9964 103.186 83.8473C102.921 83.6958 102.712 83.4685 102.561 83.1655C102.409 82.8601 102.333 82.4754 102.333 82.0114V78.5455H103.172V81.9545C103.172 82.3523 103.283 82.6695 103.505 82.9062C103.73 83.143 104.017 83.2614 104.365 83.2614C104.573 83.2614 104.785 83.2081 105 83.1016C105.218 82.995 105.4 82.8317 105.547 82.6115C105.696 82.3913 105.771 82.1108 105.771 81.7699ZM110.431 84.1136C109.905 84.1136 109.452 83.9976 109.071 83.7656C108.692 83.5312 108.4 83.2045 108.194 82.7855C107.99 82.3641 107.888 81.8741 107.888 81.3153C107.888 80.7566 107.99 80.2642 108.194 79.8381C108.4 79.4096 108.686 79.0758 109.053 78.8366C109.422 78.5952 109.853 78.4744 110.346 78.4744C110.63 78.4744 110.91 78.5218 111.187 78.6165C111.464 78.7112 111.716 78.8651 111.944 79.0781C112.171 79.2888 112.352 79.5682 112.487 79.9162C112.622 80.2642 112.689 80.6927 112.689 81.2017V81.5568H108.485V80.8324H111.837C111.837 80.5246 111.776 80.25 111.653 80.0085C111.532 79.767 111.359 79.5765 111.134 79.4368C110.912 79.2971 110.649 79.2273 110.346 79.2273C110.012 79.2273 109.723 79.3101 109.479 79.4759C109.238 79.6392 109.052 79.8523 108.922 80.1151C108.791 80.3778 108.726 80.6596 108.726 80.9602V81.4432C108.726 81.8551 108.797 82.2043 108.939 82.4908C109.084 82.7749 109.284 82.9915 109.54 83.1406C109.795 83.2874 110.092 83.3608 110.431 83.3608C110.651 83.3608 110.85 83.33 111.028 83.2685C111.207 83.2045 111.363 83.1098 111.493 82.9844C111.623 82.8565 111.724 82.6979 111.795 82.5085L112.604 82.7358C112.519 83.0104 112.376 83.2519 112.175 83.4602C111.973 83.6662 111.725 83.8272 111.429 83.9432C111.133 84.0568 110.8 84.1136 110.431 84.1136ZM116.777 86.0455V78.5455H117.586V79.4119H117.686C117.747 79.3172 117.833 79.1965 117.942 79.0497C118.053 78.9006 118.211 78.768 118.417 78.652C118.626 78.5336 118.907 78.4744 119.263 78.4744C119.722 78.4744 120.127 78.5893 120.477 78.8189C120.827 79.0485 121.101 79.3741 121.297 79.7955C121.494 80.2169 121.592 80.714 121.592 81.2869C121.592 81.8646 121.494 82.3653 121.297 82.7891C121.101 83.2105 120.829 83.5372 120.481 83.7692C120.133 83.9988 119.731 84.1136 119.277 84.1136C118.926 84.1136 118.646 84.0556 118.435 83.9396C118.224 83.8213 118.062 83.6875 117.949 83.5384C117.835 83.3868 117.747 83.2614 117.686 83.1619H117.615V86.0455H116.777ZM117.601 81.2727C117.601 81.6847 117.661 82.0481 117.782 82.3629C117.903 82.6754 118.079 82.9205 118.311 83.098C118.543 83.2732 118.827 83.3608 119.163 83.3608C119.514 83.3608 119.806 83.2685 120.04 83.0838C120.277 82.8968 120.455 82.6458 120.573 82.331C120.694 82.0137 120.754 81.661 120.754 81.2727C120.754 80.8892 120.695 80.5436 120.577 80.2358C120.461 79.9257 120.284 79.6806 120.047 79.5007C119.813 79.3184 119.518 79.2273 119.163 79.2273C118.822 79.2273 118.536 79.3137 118.304 79.4865C118.072 79.657 117.897 79.8961 117.778 80.2038C117.66 80.5092 117.601 80.8655 117.601 81.2727ZM123.709 76.7273V84H122.871V76.7273H123.709ZM126.849 84.1278C126.503 84.1278 126.189 84.0627 125.908 83.9325C125.626 83.8 125.402 83.6094 125.237 83.3608C125.071 83.1098 124.988 82.8068 124.988 82.4517C124.988 82.1392 125.049 81.8859 125.173 81.6918C125.296 81.4953 125.46 81.3414 125.666 81.2301C125.872 81.1188 126.099 81.036 126.348 80.9815C126.599 80.9247 126.851 80.8797 127.104 80.8466C127.436 80.804 127.705 80.772 127.911 80.7507C128.119 80.727 128.27 80.688 128.365 80.6335C128.462 80.5791 128.511 80.4844 128.511 80.3494V80.321C128.511 79.9706 128.415 79.6984 128.223 79.5043C128.034 79.3101 127.746 79.2131 127.36 79.2131C126.96 79.2131 126.646 79.3007 126.419 79.4759C126.192 79.651 126.032 79.8381 125.94 80.0369L125.144 79.7528C125.286 79.4214 125.476 79.1634 125.712 78.9787C125.951 78.7917 126.212 78.6615 126.494 78.5881C126.778 78.5123 127.057 78.4744 127.332 78.4744C127.507 78.4744 127.708 78.4957 127.935 78.5384C128.165 78.5786 128.386 78.6626 128.599 78.7905C128.815 78.9183 128.994 79.1113 129.136 79.3693C129.278 79.6274 129.349 79.973 129.349 80.4062V84H128.511V83.2614H128.468C128.411 83.3797 128.317 83.5064 128.184 83.6413C128.051 83.7763 127.875 83.8911 127.655 83.9858C127.435 84.0805 127.166 84.1278 126.849 84.1278ZM126.977 83.375C127.308 83.375 127.587 83.3099 127.815 83.1797C128.044 83.0495 128.217 82.8814 128.333 82.6754C128.451 82.4695 128.511 82.2528 128.511 82.0256V81.2585C128.475 81.3011 128.397 81.3402 128.276 81.3757C128.158 81.4089 128.021 81.4384 127.864 81.4645C127.71 81.4882 127.56 81.5095 127.413 81.5284C127.269 81.545 127.152 81.5592 127.062 81.571C126.844 81.5994 126.64 81.6456 126.451 81.7095C126.264 81.7711 126.112 81.8646 125.996 81.9901C125.883 82.1132 125.826 82.2812 125.826 82.4943C125.826 82.7855 125.934 83.0057 126.149 83.1548C126.367 83.3016 126.643 83.375 126.977 83.375ZM133.08 86.1591C132.675 86.1591 132.327 86.107 132.036 86.0028C131.745 85.901 131.502 85.7661 131.308 85.598C131.116 85.4323 130.964 85.2547 130.85 85.0653L131.518 84.5966C131.593 84.696 131.689 84.8097 131.805 84.9375C131.921 85.0677 132.08 85.1802 132.281 85.2749C132.485 85.3719 132.751 85.4205 133.08 85.4205C133.52 85.4205 133.884 85.3139 134.17 85.1009C134.457 84.8878 134.6 84.554 134.6 84.0994V82.9915H134.529C134.467 83.0909 134.38 83.214 134.266 83.3608C134.155 83.5052 133.994 83.6342 133.783 83.7479C133.575 83.8591 133.293 83.9148 132.938 83.9148C132.498 83.9148 132.102 83.8106 131.752 83.6023C131.404 83.3939 131.128 83.0909 130.925 82.6932C130.723 82.2955 130.623 81.8125 130.623 81.2443C130.623 80.6856 130.721 80.1991 130.917 79.7848C131.114 79.3681 131.387 79.0462 131.738 78.8189C132.088 78.5893 132.493 78.4744 132.952 78.4744C133.307 78.4744 133.589 78.5336 133.797 78.652C134.008 78.768 134.169 78.9006 134.28 79.0497C134.394 79.1965 134.482 79.3172 134.543 79.4119H134.628V78.5455H135.438V84.1562C135.438 84.625 135.331 85.0062 135.118 85.2997C134.908 85.5956 134.624 85.8123 134.266 85.9496C133.911 86.0893 133.516 86.1591 133.08 86.1591ZM133.052 83.1619C133.388 83.1619 133.672 83.085 133.904 82.9311C134.136 82.7772 134.312 82.5559 134.433 82.267C134.554 81.9782 134.614 81.6326 134.614 81.2301C134.614 80.8371 134.555 80.4903 134.437 80.1896C134.318 79.889 134.143 79.6534 133.911 79.483C133.679 79.3125 133.393 79.2273 133.052 79.2273C132.697 79.2273 132.401 79.3172 132.164 79.4972C131.93 79.6771 131.753 79.9186 131.635 80.2216C131.519 80.5246 131.461 80.8608 131.461 81.2301C131.461 81.6089 131.52 81.9439 131.638 82.2351C131.759 82.5239 131.937 82.7512 132.171 82.9169C132.408 83.0803 132.701 83.1619 133.052 83.1619ZM136.972 84V78.5455H137.81V84H136.972ZM137.398 77.6364C137.235 77.6364 137.094 77.5807 136.976 77.4695C136.86 77.3582 136.802 77.2244 136.802 77.0682C136.802 76.9119 136.86 76.7782 136.976 76.6669C137.094 76.5556 137.235 76.5 137.398 76.5C137.562 76.5 137.701 76.5556 137.817 76.6669C137.936 76.7782 137.995 76.9119 137.995 77.0682C137.995 77.2244 137.936 77.3582 137.817 77.4695C137.701 77.5807 137.562 77.6364 137.398 77.6364ZM140.183 80.7188V84H139.345V78.5455H140.155V79.3977H140.226C140.354 79.1207 140.548 78.8982 140.808 78.7301C141.069 78.5597 141.405 78.4744 141.817 78.4744C142.186 78.4744 142.509 78.5502 142.786 78.7017C143.063 78.8509 143.279 79.0781 143.433 79.3835C143.586 79.6866 143.663 80.0701 143.663 80.5341V84H142.825V80.5909C142.825 80.1624 142.714 79.8286 142.491 79.5895C142.269 79.348 141.964 79.2273 141.575 79.2273C141.308 79.2273 141.069 79.2853 140.858 79.4013C140.65 79.5173 140.485 79.6866 140.364 79.9091C140.244 80.1316 140.183 80.4015 140.183 80.7188Z" fill="#161B22"/>
<rect x="90.5" y="70.5" width="60" height="19" rx="3.5" stroke="url(#paint1_radial_18_63)"/>
<path d="M184.372 75.7727H187.321L189.35 80.7159H189.452L191.48 75.7727H194.429V84.5H192.111V79.4545H192.043L190.1 84.4318H188.702L186.759 79.4205H186.691V84.5H184.372V75.7727ZM197.561 75.7727V84.5H195.192V75.7727H197.561ZM198.086 77.6818V75.7727H205.671V77.6818H203.046V84.5H200.711V77.6818H198.086Z" fill="url(#paint2_angular_18_63)"/>
<rect x="80.5" y="0.5" width="135" height="99" rx="9.5" stroke="#1B222C"/>
<defs>
<radialGradient id="paint0_radial_18_63" cx="0" cy="0" r="1" gradientUnits="userSpaceOnUse" gradientTransform="translate(145.307 73.913) rotate(166.427) scale(51.8754 179.607)">
<stop stop-color="#00FF75"/>
<stop offset="1" stop-color="#00FFC2"/>
</radialGradient>
<radialGradient id="paint1_radial_18_63" cx="0" cy="0" r="1" gradientUnits="userSpaceOnUse" gradientTransform="translate(145.307 73.913) rotate(166.427) scale(51.8754 179.607)">
<stop stop-color="#00FF75"/>
<stop offset="1" stop-color="#00FFC2"/>
</radialGradient>
<radialGradient id="paint2_angular_18_63" cx="0" cy="0" r="1" gradientUnits="userSpaceOnUse" gradientTransform="translate(194.5 80) rotate(86.1859) scale(7.51665 11.5255)">
<stop stop-color="#858E97"/>
<stop offset="1" stop-color="#C9D1D9"/>
</radialGradient>
</defs>
</svg>
